<?xml version="1.0" encoding="UTF-8" standalone="no"?>
<svg
   width="400px"
   height="400px"
   version="1.1"
   id="svg10"
   sodipodi:docname="Test.svg"
   inkscape:version="1.1.1 (3bf5ae0d25, 2021-09-20, custom)"
   xmlns:inkscape="http://www.inkscape.org/namespaces/inkscape"
   xmlns:sodipodi="http://sodipodi.sourceforge.net/DTD/sodipodi-0.dtd"
   xmlns="http://www.w3.org/2000/svg"
   xmlns:svg="http://www.w3.org/2000/svg">
  <defs
     id="defs14" />
  <sodipodi:namedview
     id="namedview12"
     pagecolor="#ffffff"
     bordercolor="#666666"
     borderopacity="1.0"
     inkscape:pageshadow="2"
     inkscape:pageopacity="0.0"
     inkscape:pagecheckerboard="0"
     showgrid="false"
     inkscape:zoom="2.6496414"
     inkscape:cx="137.56578"
     inkscape:cy="209.46231"
     inkscape:window-width="1920"
     inkscape:window-height="1051"
     inkscape:window-x="0"
     inkscape:window-y="0"
     inkscape:window-maximized="1"
     inkscape:current-layer="svg10" />
  <ellipse
     style="opacity:1;fill:#fedb59;fill-opacity:1;fill-rule:evenodd;stroke:#010101;stroke-width:10;stroke-miterlimit:4;stroke-dasharray:none;stroke-opacity:1"
     id="path328"
     cx="204.56947"
     cy="187.6221"
     rx="123.16475"
     ry="117.5137" />
  <!-- <path d="M 139.5 166 H 283 V 229 H 139.5 L 139.5 166 C 121.5 138.5 181.5 138.5 171.5 108.5" fill="#183153" stroke="black"/> -->
  <!-- <path d="M 130 110 " stroke="black" fill="transparent"/> -->
  <path
     style="opacity:1;fill:#ffffff;fill-opacity:1;stroke:#010103;stroke-width:10;stroke-linecap:butt;stroke-linejoin:miter;stroke-miterlimit:4;stroke-dasharray:none;stroke-opacity:1"
     d="m 103.20913,180.53789 56.12576,-0.46391 c 2.71741,-4.65029 5.84357,-8.42572 6.23737,-18.04928 0.58023,-17.05048 -4.58893,-34.39151 -18.00816,-40.06611 0,0 -7.20833,-2.49233 -12.361,-2.70631 -5.15268,-0.21398 -15.37377,3.79752 -15.37377,3.79752 l -9.38193,6.96058 c 0,0 -8.24674,7.60566 -9.845,14.59073 -1.598253,6.98506 -1.378269,20.60221 -1.378269,20.60221 z"
     id="path1634"
     sodipodi:nodetypes="cccczcczcc" />
  <path
     style="opacity:1;fill:#ffffff;fill-opacity:1;stroke:#020003;stroke-width:10;stroke-linecap:butt;stroke-linejoin:miter;stroke-miterlimit:4;stroke-dasharray:none;stroke-opacity:1"
     d="m 207.61149,178.95626 70.59133,0.0376 c 3.50327,-9.48287 4.04986,-20.81201 2.75008,-30.46385 -2.49446,-4.99654 -2.32479,-10.73723 -5.89508,-15.08751 -8.22729,-9.68943 -13.52191,-11.84213 -26.0954,-15.13638 -5.79638,0.15138 -11.57507,0.12903 -16.92888,1.11162 l -11.27832,5.0738 c -6.96579,4.0751 -10.98391,9.53534 -13.70699,15.60415 -1.19578,5.14836 -3.79501,9.96032 -2.81204,15.63091 -0.13478,9.93114 1.74099,16.37074 3.3753,23.22966 z"
     id="path1634-3"
     sodipodi:nodetypes="cccccccccc" />
  <path
     style="opacity:1;fill:#010103;fill-opacity:1;stroke:#000300;stroke-width:1px;stroke-linecap:butt;stroke-linejoin:miter;stroke-opacity:1"
     d="m 103.75234,197.21292 170.99601,-0.73026 c 0,0 1.78021,-1.35926 3.60502,17.9853 1.53626,16.28567 0.43624,16.59098 -1.0974,29.59334 -0.79413,6.73274 -9.44602,20.3231 -9.44602,20.3231 l -13.599,13.49385 -14.70407,7.18769 -16.10965,4.07488 -15.24879,2.19354 -15.28156,-0.70606 -16.3882,-2.069 -11.07942,-4.53419 c 0,0 -8.7993,-4.51538 -12.57594,-7.64701 -6.55332,-5.43409 -17.07965,-18.98851 -17.07965,-18.98851 l -9.26825,-17.71469 -7.42608,-19.35484 -1.39949,-9.4101 -12.54753,-1.12841 z"
     id="path2164"
     inkscape:original-d="m 103.75234,197.21292 170.99601,-0.73026 c 0,0 1.78021,-1.35926 3.60502,17.9853 1.53626,16.28567 0.43624,16.59098 -1.0974,29.59334 -0.79413,6.73274 -9.44602,20.3231 -9.44602,20.3231 l -13.599,13.49385 -14.70407,7.18769 -16.10965,4.07488 -15.24879,2.19354 -15.28156,-0.70606 -16.3882,-2.069 -11.07942,-4.53419 c 0,0 -8.7993,-4.51538 -12.57594,-7.64701 -6.55332,-5.43409 -17.07965,-18.98851 -17.07965,-18.98851 l -9.26825,-17.71469 -7.42608,-19.35484 -1.39949,-9.4101 -12.54753,-1.12841 z"
     sodipodi:nodetypes="ccssccccccccacccccc" />
  <path
     style="fill:#871842;stroke:none;stroke-width:1px;stroke-linecap:butt;stroke-linejoin:miter;stroke-opacity:1;opacity:1;fill-opacity:1"
     d="m 132.26419,210.33258 130.33132,-0.37902 2.64504,14.04765 -0.12558,8.04785 -1.51459,9.36613 -3.9242,12.26489 -4.39247,5.95676 -8.36853,5.99204 -7.84329,5.25176 -10.37091,3.02151 -14.04224,2.66654 -15.99921,0.97174 -11.25808,-1.23793 -9.46587,-1.86337 -11.23709,-4.96444 -10.93516,-7.49448 -4.68014,-5.22702 -8.41358,-11.83795 -6.12623,-14.28024 -2.71344,-13.35278 z"
     id="path8450" />
  <path
     style="fill:#f8bddd;stroke:none;stroke-width:1px;stroke-linecap:butt;stroke-linejoin:miter;stroke-opacity:1;fill-opacity:1;opacity:1"
     d="m 194.2903,248.55225 9.7001,-3.98828 15.40941,-1.3377 13.74022,1.13382 7.57176,3.937 8.29633,4.9257 6.27559,6.41405 v 0 l -7.71296,7.66249 -18.86977,6.60282 -14.04224,2.66654 -15.99921,0.97174 -11.25808,-1.23793 -9.46587,-1.86337 v 0 l 2.12543,-11.05082 7.00232,-10.46196 z"
     id="path8594"
     sodipodi:nodetypes="cccccccccccccccccc" />
  <circle
     cx="149.55869"
     cy="137.07658"
     fill="#183153"
     id="ellipse4"
     r="15.513034"
     style="opacity:1;stroke:none;stroke-width:0.820795;fill:#020003;fill-opacity:1" />
  <circle
     fill="#183153"
     cx="263.03763"
     cy="138.23526"
     id="ellipse6"
     r="15.950045"
     style="opacity:1;stroke-width:0.843918;fill:#020003;fill-opacity:1" />
</svg>
