<svg id="svg" version="1.1" xmlns="http://www.w3.org/2000/svg" xmlns:xlink="http://www.w3.org/1999/xlink" width="400" height="302.2727272727273" viewBox="0, 0, 400,302.2727272727273"><g id="svgg"><path id="path0" d="M187.755 27.382 C 179.573 28.360,177.530 28.710,170.975 30.257 C 142.069 37.077,116.204 54.492,98.663 78.944 C 96.008 82.645,92.098 88.873,92.301 89.076 C 92.369 89.144,110.257 89.197,132.053 89.193 C 157.594 89.189,171.962 89.294,172.471 89.488 L 173.261 89.788 173.176 93.496 L 173.091 97.203 164.248 97.283 C 157.475 97.345,155.404 97.451,155.405 97.737 C 155.405 97.942,155.826 98.995,156.341 100.076 C 162.239 112.457,163.005 132.372,157.959 142.132 L 157.504 143.011 125.086 142.934 L 92.668 142.857 91.552 139.531 C 87.361 127.043,87.653 113.708,92.391 101.252 C 93.126 99.321,93.726 97.654,93.726 97.548 C 93.726 97.442,92.379 97.354,90.731 97.354 L 87.737 97.354 86.769 99.395 C 81.711 110.070,78.117 122.838,76.282 136.659 C 75.598 141.811,75.501 159.802,76.132 164.626 C 77.122 172.191,78.523 179.692,79.690 183.673 C 81.882 191.146,82.643 193.355,85.320 200.000 C 101.264 239.578,139.415 268.402,184.358 274.825 C 201.384 277.259,223.292 274.995,240.363 269.038 C 302.017 247.523,336.702 182.831,320.336 119.879 C 319.503 116.674,319.402 116.332,318.244 112.774 C 310.246 88.208,293.339 64.923,273.169 50.695 C 254.153 37.280,235.782 30.188,213.001 27.470 C 208.658 26.952,191.846 26.893,187.755 27.382 M249.584 51.531 C 253.791 52.109,257.869 53.071,260.584 54.128 C 261.851 54.620,262.982 55.024,263.097 55.025 C 263.479 55.028,270.123 58.378,271.382 59.204 C 274.815 61.453,276.074 62.388,278.156 64.229 C 279.403 65.332,280.559 66.354,280.726 66.500 C 281.442 67.127,283.863 70.092,284.566 71.202 C 284.987 71.867,285.665 72.751,286.073 73.167 C 287.021 74.135,289.645 79.018,289.645 79.816 C 289.645 80.400,289.451 80.423,284.500 80.423 L 279.356 80.423 278.757 79.441 C 278.428 78.900,278.157 78.253,278.157 78.001 C 278.151 75.728,267.944 66.259,263.190 64.115 C 247.432 57.011,229.635 57.930,218.020 66.447 C 217.288 66.984,216.532 67.423,216.340 67.423 C 215.365 67.423,207.951 75.419,206.810 77.702 C 205.429 80.465,205.534 80.423,199.965 80.423 C 197.260 80.423,194.969 80.297,194.874 80.143 C 194.361 79.314,198.057 72.648,199.999 70.899 C 200.184 70.733,200.767 69.963,201.296 69.189 C 203.237 66.347,211.078 59.952,215.420 57.670 C 217.809 56.413,222.244 54.422,222.652 54.422 C 222.903 54.422,223.556 54.229,224.102 53.993 C 229.660 51.594,241.628 50.437,249.584 51.531 M250.061 77.707 C 274.176 82.621,289.316 109.602,282.569 135.639 C 281.895 138.241,280.559 142.183,280.199 142.630 C 279.741 143.200,205.812 143.183,205.339 142.613 C 202.422 139.098,200.486 122.189,202.078 114.135 C 207.029 89.098,227.964 73.204,250.061 77.707 M275.671 165.249 C 275.964 165.341,276.037 166.269,275.973 169.080 L 275.888 172.789 274.528 172.974 C 272.694 173.222,97.778 173.051,97.372 172.800 C 96.763 172.424,96.958 165.150,97.581 164.976 C 98.208 164.802,275.106 165.072,275.671 165.249 " stroke="none" fill="#fadb54" fill-rule="evenodd"></path><path id="path1" d="M191.232 18.625 C 163.125 20.362,134.934 31.947,113.382 50.617 C 92.862 68.392,77.638 93.138,71.515 118.670 C 71.236 119.834,70.874 121.262,70.712 121.844 C 70.550 122.426,70.285 123.651,70.124 124.565 C 69.222 129.676,68.913 131.619,68.632 133.938 C 68.460 135.351,68.185 137.528,68.021 138.776 C 66.920 147.120,67.552 163.401,69.370 173.545 C 69.623 174.958,69.965 176.863,70.129 177.778 C 78.175 222.522,114.193 263.034,158.730 277.433 C 163.054 278.831,163.738 279.025,167.649 279.964 C 169.811 280.484,172.056 281.028,172.638 281.175 C 173.561 281.408,176.858 281.969,183.374 283.000 C 190.380 284.109,207.082 284.106,215.873 282.994 C 240.757 279.846,263.596 270.129,282.988 254.438 C 308.452 233.834,326.263 202.551,330.596 170.819 C 330.835 169.071,331.098 167.438,331.180 167.191 C 332.256 163.967,332.259 136.951,331.184 135.105 C 331.122 134.999,330.862 133.434,330.607 131.628 C 325.641 96.526,304.752 62.416,276.190 42.768 C 275.692 42.425,274.127 41.349,272.714 40.378 C 268.046 37.170,256.734 31.031,251.980 29.124 C 251.494 28.929,249.910 28.285,248.461 27.694 C 238.746 23.727,227.727 20.927,215.571 19.336 C 211.035 18.742,196.298 18.312,191.232 18.625 M211.569 27.061 C 244.945 30.130,274.564 45.958,296.757 72.584 C 323.461 104.620,331.856 151.504,318.055 191.526 C 294.760 259.084,220.442 293.466,154.030 267.409 C 103.322 247.515,69.640 193.018,75.554 140.438 C 76.101 135.575,77.093 128.506,77.400 127.286 C 77.547 126.704,77.882 125.208,78.145 123.961 C 79.903 115.627,85.947 98.624,87.575 97.434 C 88.103 97.048,92.934 96.883,93.813 97.220 C 94.170 97.357,94.031 97.959,93.065 100.449 C 87.986 113.546,87.624 127.404,92.035 139.825 L 93.005 142.555 125.226 142.632 L 157.446 142.709 157.778 141.876 C 162.776 129.330,161.842 111.644,155.519 99.103 C 155.123 98.319,154.800 97.604,154.800 97.516 C 154.800 97.427,158.811 97.354,163.713 97.354 L 172.626 97.354 172.796 96.674 C 172.890 96.300,172.926 94.633,172.878 92.971 L 172.789 89.947 132.376 89.796 C 110.149 89.713,91.881 89.564,91.782 89.464 C 91.524 89.206,95.234 83.177,98.324 78.833 C 119.634 48.871,153.425 29.742,190.023 26.922 C 192.351 26.742,194.800 26.543,195.465 26.478 C 197.591 26.272,206.491 26.595,211.569 27.061 M236.709 51.525 C 236.639 51.594,235.426 51.803,234.013 51.989 C 229.983 52.519,223.515 54.229,220.862 55.466 C 216.971 57.281,213.631 59.048,212.341 59.975 C 211.500 60.579,210.709 61.073,210.583 61.073 C 209.891 61.073,202.228 68.280,201.169 69.927 C 200.764 70.556,200.229 71.305,199.981 71.590 C 198.246 73.580,197.732 74.245,197.732 74.500 C 197.732 74.660,197.483 75.072,197.179 75.415 C 196.495 76.187,194.988 79.694,195.234 79.941 C 195.333 80.040,197.467 80.119,199.975 80.116 C 205.170 80.110,205.104 80.138,206.586 77.249 C 207.979 74.532,214.045 68.207,216.862 66.534 C 217.731 66.018,219.123 65.173,219.955 64.657 C 230.881 57.878,247.275 56.943,259.524 62.399 C 260.500 62.834,261.460 63.190,261.655 63.190 C 262.256 63.190,267.472 66.007,268.652 66.969 C 273.196 70.672,277.249 75.353,278.644 78.507 L 279.357 80.121 284.383 80.121 L 289.408 80.121 289.200 79.289 C 289.086 78.832,288.805 78.249,288.575 77.993 C 288.344 77.738,287.864 76.868,287.507 76.061 C 287.150 75.253,286.463 74.170,285.980 73.653 C 285.498 73.136,284.731 72.152,284.275 71.465 C 283.051 69.618,280.515 66.515,280.230 66.515 C 280.094 66.515,278.993 65.550,277.784 64.370 C 276.575 63.190,275.178 62.013,274.679 61.755 C 274.180 61.497,273.325 60.947,272.780 60.532 C 271.100 59.255,265.136 56.169,262.500 55.214 C 256.668 53.100,254.938 52.655,249.455 51.857 C 246.644 51.448,237.036 51.198,236.709 51.525 M236.281 77.870 C 209.410 82.864,194.219 114.542,205.443 142.177 C 205.639 142.658,279.970 143.080,279.970 142.599 C 279.970 142.540,280.311 141.554,280.727 140.407 C 292.700 107.442,267.552 72.058,236.281 77.870 M249.433 85.448 C 254.808 86.745,256.026 87.539,254.349 88.652 C 246.626 93.777,245.784 104.581,252.637 110.622 C 258.275 115.592,266.868 115.045,271.950 109.393 C 273.543 107.621,273.688 107.663,274.485 110.132 C 276.442 116.198,276.899 126.524,275.467 132.351 L 274.780 135.147 242.762 135.147 L 210.745 135.147 210.561 134.316 C 210.459 133.859,210.258 133.076,210.113 132.577 C 209.968 132.079,209.640 130.043,209.384 128.055 C 206.091 102.447,227.129 80.065,249.433 85.448 M126.104 100.529 C 126.768 112.918,140.777 118.662,149.371 110.068 C 151.243 108.196,151.316 108.193,151.879 109.977 C 153.964 116.585,154.256 126.310,152.581 133.333 L 152.184 134.996 125.154 134.996 L 98.125 134.996 97.393 131.973 C 95.195 122.886,96.658 109.967,100.902 100.983 C 102.978 96.588,101.403 97.032,114.563 97.124 L 125.926 97.203 126.104 100.529 M97.575 165.262 C 97.454 165.383,97.354 167.092,97.354 169.060 L 97.354 172.638 186.546 172.638 L 275.737 172.638 275.737 169.152 C 275.737 166.627,275.633 165.633,275.359 165.548 C 274.646 165.326,97.795 165.042,97.575 165.262 " stroke="none" fill="#080705" fill-rule="evenodd"></path><path id="path2" d="M0.000 151.172 L 0.000 302.343 200.000 302.343 L 400.000 302.343 400.000 151.172 L 400.000 0.000 200.000 0.000 L 0.000 0.000 0.000 151.172 M214.361 18.694 C 215.276 18.872,217.045 19.157,218.292 19.329 C 223.858 20.096,228.541 21.036,234.618 22.608 C 235.776 22.908,235.721 22.890,242.479 25.138 C 248.829 27.250,256.680 30.603,261.527 33.275 C 262.940 34.054,264.777 35.066,265.608 35.523 C 282.028 44.566,299.927 61.384,310.338 77.551 C 311.301 79.048,312.550 80.962,313.112 81.806 C 313.674 82.650,314.135 83.489,314.135 83.670 C 314.135 83.852,314.237 84.046,314.361 84.102 C 314.768 84.283,319.568 93.616,321.721 98.413 C 323.048 101.368,326.571 111.432,327.437 114.739 C 327.742 115.903,328.213 117.666,328.483 118.656 C 331.640 130.229,333.242 150.321,332.005 162.812 C 331.221 170.721,330.066 177.629,328.602 183.166 C 328.264 184.443,327.740 186.440,327.438 187.604 C 326.689 190.482,324.330 197.437,323.320 199.743 C 323.090 200.267,322.902 200.847,322.902 201.032 C 322.902 201.217,322.773 201.605,322.615 201.894 C 322.457 202.182,322.099 202.963,321.820 203.628 C 320.640 206.440,316.558 214.671,315.395 216.584 C 314.702 217.724,314.135 218.706,314.135 218.767 C 314.135 218.828,313.506 219.868,312.737 221.079 C 304.235 234.468,297.219 242.617,284.958 253.345 C 278.724 258.799,266.435 266.827,258.201 270.825 C 255.229 272.267,251.574 273.923,251.361 273.923 C 251.280 273.923,250.643 274.176,249.946 274.486 C 247.385 275.623,240.797 277.903,236.130 279.267 C 235.215 279.534,234.127 279.869,233.711 280.012 C 233.296 280.155,232.275 280.418,231.444 280.597 C 230.612 280.776,228.980 281.127,227.816 281.377 C 222.522 282.515,218.073 283.182,211.036 283.891 C 207.477 284.250,191.542 284.253,188.057 283.896 C 184.713 283.553,179.499 282.829,176.266 282.259 C 172.111 281.526,168.735 280.727,161.602 278.789 C 160.204 278.410,155.025 276.668,154.346 276.349 C 154.014 276.193,152.128 275.437,150.157 274.668 C 146.292 273.163,139.498 269.930,135.601 267.743 C 134.271 266.997,132.978 266.290,132.729 266.173 C 132.479 266.055,131.357 265.370,130.234 264.650 C 123.153 260.108,122.840 259.886,117.309 255.518 C 100.609 242.330,86.785 224.358,78.324 204.837 C 77.964 204.006,77.548 203.054,77.400 202.721 C 77.251 202.389,76.834 201.368,76.473 200.454 C 76.111 199.539,75.628 198.362,75.398 197.838 C 75.169 197.314,74.981 196.734,74.981 196.549 C 74.981 196.364,74.857 195.976,74.706 195.688 C 74.354 195.017,73.698 193.048,72.869 190.174 C 72.509 188.927,72.099 187.566,71.958 187.150 C 71.720 186.451,70.956 183.229,69.987 178.836 C 69.767 177.838,69.366 175.729,69.095 174.150 C 68.825 172.570,68.478 170.597,68.323 169.766 C 66.282 158.750,67.198 134.794,70.114 122.902 C 70.277 122.237,70.695 120.469,71.042 118.972 C 72.045 114.657,74.702 106.105,75.754 103.809 C 75.994 103.285,76.190 102.705,76.190 102.520 C 76.190 102.335,76.322 101.948,76.482 101.659 C 76.643 101.370,77.061 100.454,77.413 99.622 C 84.156 83.659,93.878 69.095,105.669 57.291 C 120.666 42.278,138.266 31.319,157.823 24.814 C 162.133 23.381,163.247 23.065,167.952 21.939 C 170.446 21.342,172.963 20.726,173.545 20.571 C 174.127 20.415,175.351 20.201,176.266 20.095 C 177.181 19.989,178.337 19.785,178.836 19.642 C 179.335 19.500,181.240 19.225,183.069 19.032 C 184.898 18.839,187.347 18.571,188.511 18.437 C 191.479 18.095,212.337 18.302,214.361 18.694 M237.642 85.563 C 218.395 88.833,205.382 111.606,210.646 132.806 L 211.153 134.848 242.757 134.771 L 274.361 134.694 274.884 132.729 C 276.635 126.153,276.233 117.840,273.746 109.220 C 273.561 108.580,273.429 108.651,271.564 110.396 C 266.865 114.791,260.920 115.718,255.286 112.933 C 245.858 108.274,244.866 95.298,253.439 88.773 C 254.954 87.620,254.944 87.604,252.073 86.670 C 247.893 85.310,241.856 84.847,237.642 85.563 M102.695 98.488 C 96.995 107.541,95.169 122.960,98.452 134.316 C 98.596 134.815,100.130 134.845,125.185 134.845 L 151.765 134.845 151.947 134.014 C 152.047 133.556,152.196 132.978,152.277 132.729 C 153.593 128.684,153.488 119.103,152.057 112.623 C 151.227 108.867,151.253 108.887,149.438 110.609 C 148.018 111.957,146.360 112.926,143.613 114.017 C 141.868 114.709,137.166 114.560,135.049 113.746 C 128.775 111.331,124.927 105.354,125.614 99.093 L 125.805 97.354 114.607 97.354 L 103.409 97.354 102.695 98.488 " stroke="none" fill="#f4f4f4" fill-rule="evenodd"></path><path id="path3" d="M191.156 18.357 C 191.614 18.426,192.362 18.426,192.819 18.357 C 193.277 18.288,192.902 18.231,191.988 18.231 C 191.073 18.231,190.699 18.288,191.156 18.357 M206.878 18.357 C 207.336 18.426,208.084 18.426,208.541 18.357 C 208.998 18.288,208.624 18.231,207.710 18.231 C 206.795 18.231,206.421 18.288,206.878 18.357 M187.528 18.659 C 187.986 18.729,188.734 18.729,189.191 18.659 C 189.649 18.590,189.274 18.534,188.360 18.534 C 187.445 18.534,187.071 18.590,187.528 18.659 M210.965 18.662 C 211.509 18.729,212.325 18.728,212.779 18.659 C 213.234 18.590,212.789 18.535,211.791 18.537 C 210.794 18.538,210.422 18.595,210.965 18.662 M178.836 19.660 C 178.432 19.839,178.683 19.868,179.592 19.748 C 180.340 19.649,181.009 19.519,181.078 19.459 C 181.341 19.232,179.413 19.405,178.836 19.660 M218.670 19.558 C 218.961 19.634,219.437 19.634,219.728 19.558 C 220.019 19.482,219.781 19.420,219.199 19.420 C 218.617 19.420,218.379 19.482,218.670 19.558 M173.696 20.573 C 173.275 20.764,173.458 20.792,174.301 20.663 C 174.966 20.562,175.567 20.429,175.636 20.368 C 175.896 20.139,174.277 20.310,173.696 20.573 M227.664 21.121 C 228.915 21.528,230.586 21.787,230.083 21.495 C 229.834 21.351,229.017 21.152,228.269 21.053 C 227.377 20.936,227.169 20.959,227.664 21.121 M232.225 22.180 C 232.294 22.239,232.759 22.380,233.258 22.491 C 233.920 22.639,234.042 22.611,233.711 22.387 C 233.303 22.111,231.921 21.918,232.225 22.180 M163.308 23.023 C 162.749 23.183,162.351 23.374,162.422 23.445 C 162.494 23.517,163.155 23.387,163.892 23.156 C 165.395 22.684,164.887 22.568,163.308 23.023 M235.072 22.978 C 235.404 23.121,235.881 23.238,236.130 23.238 C 236.416 23.238,236.360 23.142,235.979 22.978 C 235.646 22.835,235.170 22.718,234.921 22.718 C 234.635 22.718,234.691 22.814,235.072 22.978 M157.370 24.954 C 156.614 25.318,156.588 25.360,157.218 25.206 C 158.075 24.997,159.038 24.506,158.579 24.513 C 158.413 24.515,157.868 24.714,157.370 24.954 M255.178 30.385 C 255.593 30.623,256.070 30.818,256.236 30.818 C 256.402 30.818,256.198 30.623,255.782 30.385 C 255.367 30.148,254.890 29.953,254.724 29.953 C 254.558 29.953,254.762 30.148,255.178 30.385 M268.934 37.647 C 269.267 37.918,269.811 38.273,270.144 38.436 L 270.748 38.733 270.144 38.241 C 269.811 37.970,269.267 37.615,268.934 37.452 L 268.330 37.155 268.934 37.647 M273.621 40.636 C 273.621 40.719,274.233 41.209,274.981 41.723 C 275.729 42.238,276.342 42.591,276.342 42.508 C 276.342 42.425,275.729 41.936,274.981 41.421 C 274.233 40.906,273.621 40.553,273.621 40.636 M122.794 42.612 C 121.904 43.257,121.019 43.956,120.829 44.167 C 120.450 44.587,123.540 42.472,124.252 41.824 C 125.063 41.087,124.433 41.427,122.794 42.612 M119.426 45.094 C 119.010 45.440,118.406 45.909,118.083 46.135 C 117.761 46.362,117.562 46.612,117.642 46.692 C 117.722 46.772,118.394 46.305,119.136 45.654 C 120.530 44.430,120.763 43.980,119.426 45.094 M114.660 48.904 C 113.307 50.026,112.193 51.061,112.185 51.203 C 112.176 51.345,113.156 50.605,114.361 49.558 C 117.358 46.958,117.461 46.863,117.279 46.863 C 117.191 46.863,116.013 47.782,114.660 48.904 M284.807 49.057 C 284.807 49.131,285.658 49.923,286.697 50.818 C 287.736 51.713,288.396 52.205,288.164 51.912 C 287.675 51.297,284.807 48.857,284.807 49.057 M237.267 51.310 C 237.643 51.382,238.188 51.379,238.477 51.304 C 238.766 51.228,238.458 51.169,237.793 51.172 C 237.128 51.176,236.891 51.238,237.267 51.310 M245.881 51.304 C 246.172 51.380,246.648 51.380,246.939 51.304 C 247.230 51.228,246.992 51.166,246.410 51.166 C 245.828 51.166,245.590 51.228,245.881 51.304 M110.043 53.137 L 108.390 54.875 110.128 53.223 C 111.744 51.687,112.005 51.398,111.781 51.398 C 111.734 51.398,110.951 52.181,110.043 53.137 M293.122 56.841 C 295.445 59.169,297.414 61.073,297.498 61.073 C 297.581 61.073,295.748 59.169,293.424 56.841 C 291.100 54.512,289.131 52.608,289.048 52.608 C 288.965 52.608,290.798 54.512,293.122 56.841 M105.511 57.309 C 104.101 58.731,103.152 59.799,103.401 59.684 C 103.860 59.471,108.464 54.724,108.211 54.724 C 108.136 54.724,106.921 55.887,105.511 57.309 M241.502 59.176 C 242.045 59.243,242.862 59.242,243.316 59.173 C 243.770 59.104,243.326 59.049,242.328 59.051 C 241.330 59.052,240.959 59.109,241.502 59.176 M102.022 61.149 L 101.134 62.132 102.116 61.244 C 103.032 60.416,103.238 60.166,103.004 60.166 C 102.952 60.166,102.510 60.608,102.022 61.149 M298.866 62.887 C 299.516 63.553,300.115 64.097,300.198 64.097 C 300.281 64.097,299.818 63.553,299.169 62.887 C 298.519 62.222,297.920 61.678,297.836 61.678 C 297.753 61.678,298.217 62.222,298.866 62.887 M99.641 63.729 C 98.576 65.006,98.555 65.060,99.441 64.248 C 100.280 63.478,101.200 62.260,100.918 62.293 C 100.870 62.298,100.296 62.944,99.641 63.729 M97.616 66.138 C 96.584 67.268,94.853 69.539,95.023 69.539 C 95.099 69.539,95.925 68.587,96.859 67.423 C 98.617 65.231,98.934 64.694,97.616 66.138 M94.289 70.370 C 93.419 71.420,93.050 71.958,93.200 71.958 C 93.284 71.958,93.715 71.481,94.159 70.899 C 94.983 69.819,95.083 69.412,94.289 70.370 M90.942 74.906 C 89.701 76.642,89.419 77.098,89.583 77.098 C 89.652 77.098,90.281 76.281,90.981 75.283 C 91.681 74.286,92.189 73.469,92.111 73.469 C 92.033 73.469,91.507 74.116,90.942 74.906 M310.344 77.929 C 310.810 78.636,311.249 79.214,311.320 79.214 C 311.538 79.214,310.380 77.374,309.926 76.999 C 309.690 76.804,309.878 77.222,310.344 77.929 M88.368 78.685 C 87.777 79.449,87.576 79.918,87.934 79.697 C 88.292 79.476,89.008 78.307,88.785 78.307 C 88.717 78.307,88.529 78.477,88.368 78.685 M313.420 82.691 C 314.119 83.885,314.135 83.902,314.135 83.531 C 314.135 83.355,313.854 82.890,313.512 82.498 L 312.889 81.784 313.420 82.691 M238.304 85.215 C 237.920 85.323,239.935 85.412,242.782 85.412 C 245.628 85.412,247.643 85.323,247.259 85.215 C 246.875 85.107,244.860 85.019,242.782 85.019 C 240.703 85.019,238.688 85.107,238.304 85.215 M315.193 85.865 C 315.451 86.364,315.730 86.772,315.813 86.772 C 315.896 86.772,315.753 86.364,315.495 85.865 C 315.237 85.367,314.958 84.958,314.875 84.958 C 314.792 84.958,314.935 85.367,315.193 85.865 M234.165 86.168 C 233.784 86.332,233.728 86.428,234.014 86.428 C 234.263 86.428,234.739 86.311,235.072 86.168 C 235.453 86.004,235.509 85.908,235.223 85.908 C 234.974 85.908,234.497 86.025,234.165 86.168 M250.491 86.168 C 250.824 86.311,251.300 86.428,251.550 86.428 C 251.835 86.428,251.779 86.332,251.398 86.168 C 251.066 86.025,250.590 85.908,250.340 85.908 C 250.054 85.908,250.110 86.004,250.491 86.168 M252.457 86.721 C 252.706 86.876,253.250 87.093,253.666 87.204 C 254.191 87.344,254.283 87.321,253.968 87.126 C 253.719 86.972,253.175 86.755,252.759 86.643 C 252.234 86.503,252.141 86.527,252.457 86.721 M316.704 88.587 C 317.126 89.418,317.539 90.098,317.622 90.098 C 317.705 90.098,317.428 89.418,317.007 88.587 C 316.585 87.755,316.173 87.075,316.090 87.075 C 316.006 87.075,316.283 87.755,316.704 88.587 M254.597 87.584 C 254.584 87.781,254.032 88.326,253.370 88.794 C 252.708 89.262,252.164 89.753,252.161 89.886 C 252.157 90.018,252.732 89.680,253.439 89.133 C 254.146 88.586,254.772 88.112,254.831 88.079 C 254.890 88.047,254.867 87.841,254.779 87.623 C 254.674 87.360,254.613 87.347,254.597 87.584 M214.950 88.813 L 213.908 89.947 215.042 88.905 C 216.097 87.935,216.314 87.680,216.083 87.680 C 216.033 87.680,215.523 88.190,214.950 88.813 M92.290 89.400 C 92.581 89.476,93.057 89.476,93.348 89.400 C 93.639 89.324,93.401 89.261,92.819 89.261 C 92.237 89.261,91.999 89.324,92.290 89.400 M113.454 89.418 C 124.221 89.462,141.841 89.462,152.608 89.418 C 163.375 89.374,154.565 89.338,133.031 89.338 C 111.497 89.338,102.687 89.374,113.454 89.418 M250.662 91.400 L 249.925 92.366 250.889 91.478 C 251.891 90.554,252.005 90.389,251.625 90.417 C 251.500 90.427,251.067 90.869,250.662 91.400 M220.704 94.558 L 218.141 97.203 220.786 94.640 C 222.241 93.230,223.432 92.040,223.432 91.995 C 223.432 91.775,223.084 92.101,220.704 94.558 M318.697 92.366 C 318.697 92.532,319.025 93.280,319.426 94.029 C 319.826 94.777,320.154 95.253,320.154 95.087 C 320.154 94.921,319.826 94.172,319.426 93.424 C 319.025 92.676,318.697 92.200,318.697 92.366 M247.945 96.646 C 247.768 97.285,247.633 98.080,247.646 98.413 C 247.660 98.745,247.851 98.269,248.072 97.354 C 248.532 95.453,248.432 94.894,247.945 96.646 M102.874 97.732 C 102.446 98.273,101.844 99.471,102.000 99.471 C 102.073 99.471,102.413 98.995,102.757 98.413 C 103.381 97.355,103.438 97.019,102.874 97.732 M217.645 97.884 C 216.775 98.934,216.407 99.471,216.556 99.471 C 216.640 99.471,217.071 98.995,217.515 98.413 C 218.339 97.333,218.439 96.925,217.645 97.884 M125.563 100.378 C 125.563 101.293,125.620 101.667,125.689 101.209 C 125.758 100.752,125.758 100.004,125.689 99.546 C 125.620 99.089,125.563 99.463,125.563 100.378 M247.640 102.520 C 247.652 102.921,247.785 103.522,247.936 103.855 C 248.126 104.276,248.154 104.093,248.025 103.250 C 247.812 101.846,247.610 101.463,247.640 102.520 M125.795 103.129 C 125.772 103.686,126.398 105.600,126.552 105.446 C 126.609 105.389,126.466 104.736,126.235 103.994 C 126.004 103.252,125.806 102.863,125.795 103.129 M213.201 105.077 C 212.694 106.189,212.791 106.426,213.339 105.415 C 213.595 104.943,213.747 104.501,213.678 104.432 C 213.609 104.362,213.394 104.653,213.201 105.077 M248.526 105.631 C 248.526 106.001,249.714 108.190,250.016 108.377 C 250.175 108.475,249.950 107.906,249.516 107.112 C 248.618 105.472,248.526 105.334,248.526 105.631 M98.737 106.900 C 98.625 107.343,98.593 107.764,98.664 107.835 C 98.735 107.906,98.885 107.602,98.996 107.159 C 99.107 106.716,99.140 106.295,99.068 106.224 C 98.997 106.153,98.848 106.457,98.737 106.900 M212.294 107.194 C 211.787 108.305,211.884 108.543,212.432 107.532 C 212.688 107.060,212.840 106.617,212.771 106.548 C 212.702 106.479,212.487 106.769,212.294 107.194 M127.768 107.937 C 128.247 108.904,129.791 110.677,130.709 111.312 C 131.419 111.804,131.310 111.627,130.291 110.637 C 129.532 109.900,128.603 108.889,128.227 108.390 C 127.852 107.891,127.645 107.687,127.768 107.937 M271.675 109.994 L 270.183 111.716 271.902 110.063 C 272.847 109.154,273.621 108.372,273.621 108.325 C 273.621 107.950,272.941 108.534,271.675 109.994 M73.642 109.621 C 73.531 110.064,73.498 110.485,73.570 110.556 C 73.641 110.627,73.790 110.323,73.901 109.880 C 74.013 109.437,74.045 109.016,73.974 108.945 C 73.903 108.874,73.753 109.178,73.642 109.621 M251.625 110.225 C 252.415 111.056,253.503 111.976,254.044 112.268 C 254.992 112.782,255.000 112.781,254.271 112.261 C 253.855 111.964,252.766 111.044,251.852 110.217 L 250.189 108.713 251.625 110.225 M273.668 108.995 C 273.667 109.161,273.850 109.773,274.074 110.355 C 274.298 110.937,274.486 111.209,274.491 110.960 C 274.496 110.711,274.313 110.098,274.085 109.599 C 273.857 109.101,273.669 108.828,273.668 108.995 M325.968 110.355 C 325.968 110.605,326.085 111.081,326.228 111.413 C 326.392 111.795,326.488 111.850,326.488 111.565 C 326.488 111.315,326.371 110.839,326.228 110.506 C 326.064 110.125,325.968 110.069,325.968 110.355 M97.543 111.300 C 97.291 112.560,97.536 112.805,97.808 111.565 C 97.923 111.042,97.954 110.551,97.877 110.474 C 97.800 110.397,97.650 110.769,97.543 111.300 M147.423 111.888 C 146.775 112.375,146.334 112.774,146.445 112.774 C 146.788 112.774,148.745 111.426,148.749 111.187 C 148.754 110.883,148.769 110.875,147.423 111.888 M152.139 112.623 C 152.139 112.955,152.248 113.568,152.381 113.983 C 152.573 114.582,152.623 114.613,152.623 114.135 C 152.623 113.802,152.514 113.190,152.381 112.774 C 152.189 112.175,152.139 112.144,152.139 112.623 M266.969 113.228 C 266.553 113.465,266.349 113.660,266.515 113.660 C 266.682 113.660,267.158 113.465,267.574 113.228 C 267.989 112.990,268.193 112.795,268.027 112.795 C 267.861 112.795,267.385 112.990,266.969 113.228 M274.881 113.228 C 274.876 113.560,274.989 114.104,275.132 114.437 C 275.463 115.207,275.463 114.412,275.132 113.379 C 274.938 112.771,274.888 112.741,274.881 113.228 M326.875 113.379 C 326.875 113.628,326.992 114.104,327.135 114.437 C 327.299 114.818,327.395 114.874,327.395 114.588 C 327.395 114.339,327.278 113.862,327.135 113.530 C 326.972 113.149,326.875 113.093,326.875 113.379 M135.752 113.979 C 136.002 114.143,136.534 114.279,136.936 114.281 C 137.907 114.287,137.661 114.115,136.357 113.876 C 135.612 113.739,135.433 113.770,135.752 113.979 M142.555 113.983 C 141.718 114.196,141.706 114.217,142.404 114.245 C 142.819 114.262,143.364 114.145,143.613 113.983 C 144.128 113.651,143.862 113.651,142.555 113.983 M138.700 114.504 C 139.240 114.571,140.125 114.571,140.665 114.504 C 141.206 114.437,140.763 114.382,139.683 114.382 C 138.602 114.382,138.159 114.437,138.700 114.504 M260.852 114.505 C 261.395 114.572,262.212 114.571,262.666 114.502 C 263.120 114.433,262.676 114.378,261.678 114.379 C 260.680 114.381,260.309 114.438,260.852 114.505 M71.844 115.356 C 71.740 115.626,71.667 116.074,71.681 116.351 C 71.696 116.629,71.827 116.454,71.974 115.964 C 72.259 115.010,72.158 114.537,71.844 115.356 M152.753 116.100 C 152.753 116.682,152.816 116.920,152.892 116.629 C 152.968 116.338,152.968 115.862,152.892 115.571 C 152.816 115.280,152.753 115.518,152.753 116.100 M96.832 116.704 C 96.832 117.453,96.891 117.759,96.963 117.385 C 97.035 117.011,97.035 116.398,96.963 116.024 C 96.891 115.650,96.832 115.956,96.832 116.704 M209.600 118.065 C 209.603 118.730,209.665 118.967,209.738 118.591 C 209.810 118.214,209.807 117.670,209.732 117.381 C 209.656 117.092,209.597 117.400,209.600 118.065 M153.068 118.519 C 153.068 119.267,153.127 119.573,153.199 119.199 C 153.271 118.825,153.271 118.212,153.199 117.838 C 153.127 117.464,153.068 117.770,153.068 118.519 M275.828 119.123 C 275.828 120.038,275.884 120.412,275.954 119.955 C 276.023 119.497,276.023 118.749,275.954 118.292 C 275.884 117.834,275.828 118.209,275.828 119.123 M96.556 121.542 C 96.556 123.122,96.607 123.768,96.670 122.978 C 96.732 122.188,96.732 120.896,96.670 120.106 C 96.607 119.316,96.556 119.962,96.556 121.542 M328.698 120.181 C 328.694 120.514,328.806 121.058,328.949 121.391 C 329.280 122.161,329.280 121.366,328.949 120.333 C 328.755 119.725,328.706 119.695,328.698 120.181 M209.330 123.054 C 209.330 124.633,209.381 125.280,209.444 124.490 C 209.506 123.700,209.506 122.407,209.444 121.618 C 209.381 120.828,209.330 121.474,209.330 123.054 M153.387 122.902 C 153.389 124.067,153.443 124.506,153.509 123.878 C 153.574 123.251,153.573 122.299,153.506 121.762 C 153.439 121.225,153.386 121.738,153.387 122.902 M276.141 123.054 C 276.141 124.301,276.194 124.811,276.260 124.187 C 276.325 123.564,276.325 122.543,276.260 121.920 C 276.194 121.296,276.141 121.807,276.141 123.054 M96.832 126.379 C 96.832 127.128,96.891 127.434,96.963 127.060 C 97.035 126.686,97.035 126.073,96.963 125.699 C 96.891 125.325,96.832 125.631,96.832 126.379 M275.828 126.984 C 275.828 127.899,275.884 128.273,275.954 127.816 C 276.023 127.358,276.023 126.610,275.954 126.153 C 275.884 125.695,275.828 126.070,275.828 126.984 M153.068 127.589 C 153.068 128.337,153.127 128.643,153.199 128.269 C 153.271 127.895,153.271 127.283,153.199 126.909 C 153.127 126.534,153.068 126.841,153.068 127.589 M69.123 127.449 C 69.019 127.720,68.948 128.236,68.965 128.596 C 68.985 129.011,69.087 128.863,69.244 128.196 C 69.508 127.072,69.437 126.631,69.123 127.449 M209.600 128.042 C 209.603 128.707,209.665 128.944,209.738 128.568 C 209.810 128.192,209.807 127.648,209.732 127.359 C 209.656 127.069,209.597 127.377,209.600 128.042 M97.122 128.798 C 97.122 129.380,97.185 129.618,97.261 129.327 C 97.337 129.036,97.337 128.560,97.261 128.269 C 97.185 127.978,97.122 128.216,97.122 128.798 M152.753 130.008 C 152.753 130.590,152.816 130.828,152.892 130.537 C 152.968 130.246,152.968 129.769,152.892 129.478 C 152.816 129.187,152.753 129.426,152.753 130.008 M330.666 130.461 C 330.762 131.293,330.891 132.029,330.953 132.099 C 331.166 132.337,331.005 130.461,330.749 129.705 C 330.575 129.195,330.549 129.442,330.666 130.461 M97.406 130.915 C 97.421 131.700,97.897 132.990,97.908 132.275 C 97.913 131.943,97.800 131.398,97.657 131.066 C 97.498 130.695,97.400 130.637,97.406 130.915 M274.981 132.124 C 274.866 132.647,274.835 133.137,274.912 133.214 C 274.989 133.291,275.139 132.920,275.246 132.389 C 275.498 131.128,275.253 130.884,274.981 132.124 M152.247 132.594 C 152.133 133.201,152.100 133.758,152.174 133.832 C 152.248 133.906,152.401 133.470,152.515 132.863 C 152.629 132.256,152.662 131.699,152.588 131.625 C 152.514 131.552,152.360 131.988,152.247 132.594 M68.218 133.058 C 68.113 133.584,68.043 134.371,68.063 134.807 C 68.082 135.244,68.220 134.866,68.369 133.967 C 68.660 132.216,68.536 131.469,68.218 133.058 M210.473 133.031 C 210.473 133.280,210.590 133.757,210.733 134.089 C 210.897 134.470,210.993 134.526,210.993 134.240 C 210.993 133.991,210.876 133.515,210.733 133.182 C 210.569 132.801,210.473 132.745,210.473 133.031 M274.458 134.171 L 274.283 134.842 242.583 134.921 L 210.884 134.999 242.518 135.073 C 275.928 135.152,275.193 135.179,274.760 133.880 C 274.691 133.671,274.555 133.802,274.458 134.171 M98.385 134.611 C 98.500 135.179,151.840 135.179,151.955 134.611 C 151.998 134.399,151.964 134.365,151.880 134.535 C 151.776 134.743,143.004 134.845,125.170 134.845 C 107.336 134.845,98.564 134.743,98.461 134.535 C 98.376 134.365,98.342 134.399,98.385 134.611 M331.590 137.566 C 331.681 138.647,331.804 139.588,331.864 139.657 C 332.075 139.901,331.909 137.103,331.669 136.357 C 331.523 135.903,331.491 136.387,331.590 137.566 M67.499 141.648 C 67.502 142.313,67.564 142.549,67.636 142.173 C 67.709 141.797,67.706 141.253,67.630 140.964 C 67.555 140.675,67.495 140.983,67.499 141.648 M332.055 142.404 C 332.055 143.152,332.114 143.458,332.186 143.084 C 332.258 142.710,332.258 142.098,332.186 141.723 C 332.114 141.349,332.055 141.655,332.055 142.404 M67.252 151.172 C 67.252 155.578,67.294 157.381,67.346 155.178 C 67.398 152.974,67.398 149.369,67.346 147.166 C 67.294 144.962,67.252 146.765,67.252 151.172 M75.397 151.323 C 75.397 153.152,75.447 153.861,75.507 152.899 C 75.567 151.937,75.567 150.440,75.506 149.573 C 75.445 148.706,75.396 149.494,75.397 151.323 M332.049 160.091 C 332.052 160.756,332.114 160.992,332.187 160.616 C 332.259 160.240,332.256 159.696,332.181 159.407 C 332.105 159.118,332.046 159.426,332.049 160.091 M67.499 160.695 C 67.502 161.361,67.564 161.597,67.636 161.221 C 67.709 160.845,67.706 160.301,67.630 160.012 C 67.555 159.723,67.495 160.030,67.499 160.695 M331.747 164.021 C 331.750 164.686,331.812 164.923,331.884 164.547 C 331.957 164.171,331.954 163.626,331.878 163.337 C 331.803 163.048,331.743 163.356,331.747 164.021 M115.547 165.004 C 125.304 165.048,141.358 165.048,151.224 165.004 C 161.089 164.960,153.107 164.923,133.485 164.923 C 113.862 164.923,105.791 164.959,115.547 165.004 M68.057 167.826 C 68.074 168.394,68.201 169.199,68.340 169.615 C 68.503 170.102,68.531 169.781,68.420 168.707 C 68.223 166.805,68.013 166.294,68.057 167.826 M330.624 171.894 C 330.507 172.830,330.474 173.659,330.551 173.735 C 330.627 173.812,330.786 173.109,330.903 172.173 C 331.020 171.237,331.053 170.408,330.976 170.331 C 330.899 170.254,330.741 170.958,330.624 171.894 M171.202 173.157 C 171.659 173.226,172.407 173.226,172.865 173.157 C 173.322 173.088,172.948 173.031,172.033 173.031 C 171.119 173.031,170.745 173.088,171.202 173.157 M271.126 173.154 C 271.500 173.226,272.113 173.226,272.487 173.154 C 272.861 173.082,272.555 173.023,271.807 173.023 C 271.058 173.023,270.752 173.082,271.126 173.154 M328.820 181.276 C 328.709 181.719,328.676 182.140,328.747 182.212 C 328.818 182.283,328.968 181.979,329.079 181.535 C 329.190 181.092,329.223 180.672,329.152 180.600 C 329.080 180.529,328.931 180.833,328.820 181.276 M70.800 182.464 C 70.795 182.797,70.908 183.341,71.051 183.673 C 71.382 184.444,71.382 183.649,71.051 182.615 C 70.856 182.008,70.807 181.978,70.800 182.464 M71.660 186.117 C 71.663 186.436,71.803 186.901,71.971 187.150 C 72.196 187.482,72.224 187.359,72.075 186.697 C 71.827 185.585,71.654 185.344,71.660 186.117 M327.006 188.230 C 326.895 188.673,326.862 189.094,326.933 189.165 C 327.004 189.237,327.154 188.932,327.265 188.489 C 327.376 188.046,327.409 187.625,327.337 187.554 C 327.266 187.483,327.117 187.787,327.006 188.230 M75.146 197.203 C 75.259 197.577,75.476 198.017,75.628 198.179 C 75.780 198.342,75.752 198.035,75.564 197.499 C 75.182 196.400,74.828 196.151,75.146 197.203 M75.910 199.093 C 75.910 199.259,76.104 199.735,76.342 200.151 C 76.579 200.567,76.774 200.771,76.774 200.605 C 76.774 200.438,76.579 199.962,76.342 199.546 C 76.104 199.131,75.910 198.927,75.910 199.093 M76.960 201.738 C 77.073 202.113,77.290 202.552,77.442 202.714 C 77.594 202.877,77.566 202.571,77.378 202.034 C 76.996 200.936,76.642 200.686,76.960 201.738 M78.631 205.442 C 78.631 205.608,78.825 206.085,79.063 206.500 C 79.300 206.916,79.495 207.120,79.495 206.954 C 79.495 206.788,79.300 206.311,79.063 205.896 C 78.825 205.480,78.631 205.276,78.631 205.442 M316.704 213.757 C 316.283 214.588,316.006 215.268,316.090 215.268 C 316.173 215.268,316.585 214.588,317.007 213.757 C 317.428 212.925,317.705 212.245,317.622 212.245 C 317.539 212.245,317.126 212.925,316.704 213.757 M88.192 223.455 C 88.492 223.966,88.931 224.545,89.167 224.740 C 89.403 224.935,89.215 224.516,88.749 223.810 C 87.770 222.326,87.384 222.080,88.192 223.455 M90.006 226.176 C 90.306 226.688,90.745 227.266,90.981 227.461 C 91.217 227.656,91.029 227.237,90.563 226.531 C 89.584 225.047,89.198 224.801,90.006 226.176 M93.397 230.939 C 93.560 231.244,93.931 231.686,94.221 231.922 C 94.548 232.187,94.475 231.976,94.030 231.368 C 93.236 230.283,92.938 230.082,93.397 230.939 M302.762 234.831 C 302.122 235.613,301.755 236.155,301.948 236.036 C 302.359 235.782,304.274 233.409,304.068 233.409 C 303.991 233.409,303.403 234.049,302.762 234.831 M96.750 235.318 C 96.750 235.370,97.192 235.812,97.732 236.300 L 98.715 237.188 97.827 236.206 C 96.999 235.290,96.750 235.084,96.750 235.318 M299.643 238.627 C 298.573 239.831,298.211 240.340,298.838 239.758 C 299.906 238.767,301.911 236.429,301.688 236.435 C 301.633 236.437,300.712 237.423,299.643 238.627 M98.564 237.434 C 98.564 237.486,99.006 237.928,99.546 238.417 L 100.529 239.305 99.641 238.322 C 98.813 237.406,98.564 237.200,98.564 237.434 M102.416 241.723 C 103.597 243.054,105.420 244.958,106.467 245.956 C 107.513 246.954,107.026 246.342,105.384 244.596 C 101.193 240.139,99.884 238.873,102.416 241.723 M293.269 245.423 C 290.860 247.874,289.623 249.201,290.520 248.371 C 292.350 246.680,292.228 246.799,295.533 243.428 C 296.860 242.075,297.878 240.967,297.797 240.967 C 297.716 240.967,295.678 242.973,293.269 245.423 M111.276 250.390 C 112.198 251.277,113.694 252.605,114.601 253.341 C 116.924 255.226,115.562 253.895,112.320 251.112 C 110.735 249.752,110.299 249.450,111.276 250.390 M287.210 251.172 L 286.168 252.305 287.302 251.263 C 287.925 250.690,288.435 250.180,288.435 250.130 C 288.435 249.899,288.180 250.116,287.210 251.172 M283.273 254.473 L 282.540 255.280 283.362 254.700 C 283.814 254.381,284.188 254.017,284.193 253.893 C 284.209 253.520,284.043 253.625,283.273 254.473 M122.751 259.660 C 123.333 260.165,124.218 260.811,124.717 261.095 C 125.976 261.814,125.338 261.247,123.356 259.885 C 122.015 258.963,121.898 258.920,122.751 259.660 M130.008 264.403 C 130.008 264.608,132.464 266.125,132.592 265.997 C 132.651 265.938,132.094 265.523,131.354 265.076 C 130.613 264.629,130.008 264.326,130.008 264.403 M145.729 272.865 C 146.145 273.102,146.621 273.297,146.788 273.297 C 146.954 273.297,146.750 273.102,146.334 272.865 C 145.918 272.627,145.442 272.433,145.276 272.433 C 145.110 272.433,145.314 272.627,145.729 272.865 M147.846 273.772 C 148.262 274.009,148.738 274.204,148.904 274.204 C 149.070 274.204,148.866 274.009,148.450 273.772 C 148.035 273.534,147.559 273.340,147.392 273.340 C 147.226 273.340,147.430 273.534,147.846 273.772 M154.195 276.214 C 154.195 276.418,155.766 276.988,155.915 276.839 C 155.984 276.770,155.625 276.569,155.117 276.392 C 154.610 276.215,154.195 276.135,154.195 276.214 M244.142 276.503 C 243.386 276.868,243.361 276.910,243.991 276.756 C 244.848 276.546,245.811 276.055,245.351 276.062 C 245.185 276.065,244.641 276.263,244.142 276.503 M156.916 277.198 C 157.166 277.352,157.710 277.569,158.125 277.680 C 158.651 277.821,158.743 277.797,158.428 277.602 C 158.178 277.448,157.634 277.231,157.218 277.120 C 156.693 276.979,156.601 277.003,156.916 277.198 M160.091 278.318 C 160.590 278.546,161.202 278.729,161.451 278.724 C 161.701 278.719,161.429 278.531,160.847 278.307 C 159.466 277.775,158.923 277.783,160.091 278.318 M162.661 279.018 C 162.910 279.164,163.522 279.372,164.021 279.480 C 164.602 279.605,164.765 279.580,164.475 279.410 C 164.225 279.264,163.613 279.056,163.114 278.948 C 162.534 278.823,162.370 278.848,162.661 279.018 M169.615 280.863 C 169.864 281.032,170.329 281.172,170.648 281.175 C 171.421 281.181,171.180 281.008,170.068 280.759 C 169.406 280.611,169.283 280.639,169.615 280.863 M229.176 280.877 C 228.553 281.076,228.527 281.123,229.025 281.144 C 229.358 281.158,229.834 281.038,230.083 280.877 C 230.613 280.534,230.245 280.534,229.176 280.877 M173.696 281.770 C 174.277 282.033,175.896 282.204,175.636 281.975 C 175.567 281.914,174.966 281.781,174.301 281.680 C 173.458 281.552,173.275 281.579,173.696 281.770 M224.943 281.784 C 224.321 281.983,224.294 282.030,224.792 282.051 C 225.125 282.065,225.601 281.945,225.850 281.784 C 226.380 281.441,226.012 281.441,224.943 281.784 M178.836 282.683 C 179.413 282.939,181.341 283.112,181.078 282.884 C 181.009 282.824,180.340 282.694,179.592 282.595 C 178.683 282.475,178.432 282.504,178.836 282.683 M219.501 282.691 L 218.443 282.914 219.501 282.949 C 220.083 282.968,220.763 282.852,221.013 282.691 C 221.563 282.336,221.189 282.336,219.501 282.691 M185.336 283.596 C 186.083 283.837,188.881 284.002,188.637 283.791 C 188.568 283.732,187.627 283.608,186.546 283.518 C 185.367 283.419,184.883 283.450,185.336 283.596 M211.115 283.815 C 211.575 283.884,212.255 283.882,212.627 283.811 C 212.999 283.739,212.623 283.682,211.791 283.684 C 210.960 283.687,210.656 283.745,211.115 283.815 M190.708 284.119 C 191.252 284.187,192.068 284.185,192.522 284.116 C 192.977 284.047,192.532 283.992,191.534 283.994 C 190.537 283.996,190.165 284.052,190.708 284.119 M207.332 284.114 C 207.706 284.186,208.318 284.186,208.692 284.114 C 209.067 284.042,208.760 283.983,208.012 283.983 C 207.264 283.983,206.958 284.042,207.332 284.114 " stroke="none" fill="#949494" fill-rule="evenodd"></path><path id="path4" d="M196.599 18.366 C 198.386 18.420,201.311 18.420,203.099 18.366 C 204.887 18.313,203.424 18.269,199.849 18.269 C 196.274 18.269,194.811 18.313,196.599 18.366 M190.552 18.659 C 191.009 18.729,191.757 18.729,192.215 18.659 C 192.672 18.590,192.298 18.534,191.383 18.534 C 190.469 18.534,190.094 18.590,190.552 18.659 M207.332 18.662 C 207.872 18.729,208.757 18.729,209.297 18.662 C 209.837 18.595,209.395 18.540,208.314 18.540 C 207.234 18.540,206.791 18.595,207.332 18.662 M212.320 18.954 C 212.611 19.030,213.088 19.030,213.379 18.954 C 213.670 18.878,213.432 18.815,212.850 18.815 C 212.268 18.815,212.029 18.878,212.320 18.954 M183.753 19.261 C 184.129 19.334,184.673 19.331,184.962 19.255 C 185.251 19.180,184.943 19.121,184.278 19.124 C 183.613 19.127,183.376 19.189,183.753 19.261 M214.894 19.261 C 215.270 19.334,215.814 19.331,216.103 19.255 C 216.392 19.180,216.085 19.121,215.420 19.124 C 214.754 19.127,214.518 19.189,214.894 19.261 M181.481 19.558 C 181.772 19.634,182.249 19.634,182.540 19.558 C 182.831 19.482,182.593 19.420,182.011 19.420 C 181.429 19.420,181.190 19.482,181.481 19.558 M176.266 20.257 C 175.250 20.582,176.348 20.582,177.627 20.257 C 178.441 20.050,178.457 20.026,177.778 20.021 C 177.362 20.017,176.682 20.124,176.266 20.257 M221.769 20.257 C 223.048 20.582,224.145 20.582,223.129 20.257 C 222.714 20.124,222.033 20.017,221.618 20.021 C 220.939 20.026,220.954 20.050,221.769 20.257 M171.882 21.164 C 171.112 21.495,171.907 21.495,172.940 21.164 C 173.548 20.969,173.578 20.920,173.091 20.913 C 172.759 20.908,172.215 21.021,171.882 21.164 M167.952 22.071 C 167.181 22.402,167.976 22.402,169.010 22.071 C 169.617 21.876,169.647 21.827,169.161 21.820 C 168.828 21.815,168.284 21.928,167.952 22.071 M230.688 22.071 C 231.722 22.402,232.516 22.402,231.746 22.071 C 231.413 21.928,230.869 21.815,230.537 21.820 C 230.051 21.827,230.080 21.876,230.688 22.071 M234.165 22.978 C 234.497 23.121,234.974 23.238,235.223 23.238 C 235.509 23.238,235.453 23.142,235.072 22.978 C 234.739 22.835,234.263 22.718,234.014 22.718 C 233.728 22.718,233.784 22.814,234.165 22.978 M161.300 23.885 C 160.919 24.049,160.863 24.145,161.149 24.145 C 161.398 24.145,161.875 24.028,162.207 23.885 C 162.588 23.721,162.644 23.625,162.358 23.625 C 162.109 23.625,161.633 23.742,161.300 23.885 M153.741 26.466 C 152.985 26.830,152.960 26.872,153.590 26.718 C 154.447 26.508,155.410 26.018,154.951 26.024 C 154.785 26.027,154.240 26.225,153.741 26.466 M194.104 26.606 C 192.606 26.717,195.001 26.799,199.849 26.803 C 205.683 26.809,207.307 26.745,205.291 26.591 C 201.928 26.334,197.714 26.340,194.104 26.606 M188.587 27.122 C 188.961 27.194,189.573 27.194,189.947 27.122 C 190.321 27.050,190.015 26.991,189.267 26.991 C 188.519 26.991,188.212 27.050,188.587 27.122 M209.751 27.122 C 210.125 27.194,210.737 27.194,211.111 27.122 C 211.485 27.050,211.179 26.991,210.431 26.991 C 209.683 26.991,209.376 27.050,209.751 27.122 M183.825 27.513 L 182.464 27.725 183.673 27.744 C 184.339 27.754,185.563 27.657,186.395 27.527 L 187.906 27.292 186.546 27.297 C 185.797 27.299,184.573 27.397,183.825 27.513 M213.908 27.516 C 215.072 27.669,217.490 28.022,219.283 28.300 C 221.075 28.579,222.609 28.739,222.691 28.657 C 222.904 28.444,216.531 27.495,213.948 27.355 L 211.791 27.237 213.908 27.516 M178.685 28.216 C 177.604 28.394,176.992 28.582,177.324 28.633 C 177.657 28.684,178.949 28.536,180.197 28.304 C 182.838 27.811,181.584 27.739,178.685 28.216 M146.939 29.176 C 146.523 29.414,146.319 29.608,146.485 29.608 C 146.652 29.608,147.128 29.414,147.543 29.176 C 147.959 28.938,148.163 28.744,147.997 28.744 C 147.831 28.744,147.354 28.938,146.939 29.176 M224.187 29.057 C 224.853 29.227,227.370 29.847,229.781 30.434 C 232.192 31.021,236.546 32.290,239.456 33.255 C 245.268 35.181,246.611 35.458,241.962 33.772 C 236.386 31.750,227.694 29.358,224.339 28.923 L 222.978 28.746 224.187 29.057 M173.243 29.327 L 172.487 29.569 173.243 29.569 C 173.658 29.569,174.339 29.460,174.754 29.327 L 175.510 29.085 174.754 29.085 C 174.339 29.085,173.658 29.194,173.243 29.327 M168.707 30.407 C 164.930 31.391,158.938 33.264,159.087 33.413 C 159.152 33.478,160.493 33.124,162.067 32.628 C 163.640 32.131,166.561 31.303,168.556 30.789 C 170.552 30.275,172.241 29.803,172.310 29.742 C 172.601 29.483,171.407 29.703,168.707 30.407 M143.008 30.990 C 142.593 31.228,142.389 31.422,142.555 31.422 C 142.721 31.422,143.197 31.228,143.613 30.990 C 144.029 30.753,144.233 30.558,144.067 30.558 C 143.900 30.558,143.424 30.753,143.008 30.990 M256.110 30.955 C 256.417 31.240,262.434 34.154,262.434 34.019 C 262.434 33.851,256.520 30.839,256.191 30.839 C 256.077 30.839,256.041 30.891,256.110 30.955 M136.886 34.033 C 136.096 34.445,135.450 34.849,135.450 34.932 C 135.450 35.014,136.130 34.737,136.961 34.316 C 137.793 33.895,138.473 33.484,138.473 33.404 C 138.473 33.204,138.500 33.193,136.886 34.033 M156.378 34.240 C 155.500 34.576,154.842 34.913,154.917 34.987 C 155.059 35.129,158.730 33.862,158.730 33.671 C 158.730 33.450,157.941 33.640,156.378 34.240 M151.927 36.018 C 150.763 36.526,149.486 37.069,149.089 37.225 C 148.692 37.380,148.431 37.571,148.509 37.650 C 148.636 37.777,154.164 35.503,154.472 35.197 C 154.800 34.871,153.857 35.175,151.927 36.018 M245.200 35.156 C 245.441 35.409,253.178 38.684,253.285 38.577 C 253.337 38.524,251.846 37.800,249.971 36.967 C 246.679 35.506,244.885 34.824,245.200 35.156 M265.457 35.812 C 265.457 35.895,265.865 36.174,266.364 36.432 C 266.863 36.690,267.271 36.833,267.271 36.750 C 267.271 36.667,266.863 36.388,266.364 36.130 C 265.865 35.872,265.457 35.729,265.457 35.812 M142.857 40.310 C 123.626 50.259,107.639 64.622,95.692 82.683 C 93.403 86.144,91.441 89.494,91.703 89.494 C 91.787 89.494,92.296 88.711,92.835 87.755 C 103.667 68.551,123.829 49.906,144.950 39.561 C 146.600 38.753,148.017 38.025,148.099 37.943 C 148.610 37.432,147.117 38.106,142.857 40.310 M253.666 38.826 C 253.666 38.896,255.128 39.695,256.916 40.601 C 274.228 49.383,290.741 63.820,301.948 79.970 C 304.076 83.035,308.088 89.336,308.088 89.611 C 308.088 89.949,309.383 91.927,309.517 91.793 C 310.005 91.305,300.761 77.387,296.757 72.584 C 285.149 58.656,273.158 48.914,256.965 40.251 C 254.198 38.771,253.666 38.541,253.666 38.826 M270.801 39.026 C 271.176 39.481,273.016 40.638,273.016 40.420 C 273.016 40.350,272.438 39.911,271.731 39.445 C 271.024 38.978,270.606 38.790,270.801 39.026 M125.998 40.672 C 124.878 41.423,123.961 42.105,123.961 42.186 C 123.961 42.267,124.913 41.700,126.077 40.926 C 127.929 39.694,128.419 39.305,128.115 39.305 C 128.071 39.305,127.119 39.920,125.998 40.672 M122.600 43.110 L 121.693 43.890 122.676 43.239 C 123.216 42.882,123.658 42.530,123.658 42.459 C 123.658 42.232,123.530 42.311,122.600 43.110 M277.357 43.468 C 277.596 43.856,279.365 45.164,279.365 44.954 C 279.365 44.880,278.866 44.438,278.255 43.972 C 277.645 43.506,277.241 43.280,277.357 43.468 M120.321 44.769 L 119.274 45.697 120.408 44.884 C 121.410 44.165,121.736 43.840,121.455 43.840 C 121.407 43.840,120.897 44.258,120.321 44.769 M280.877 46.051 C 280.877 46.134,281.557 46.772,282.389 47.468 C 283.220 48.164,283.900 48.666,283.900 48.582 C 283.900 48.499,283.220 47.862,282.389 47.166 C 281.557 46.469,280.877 45.968,280.877 46.051 M115.325 48.753 L 114.437 49.735 115.420 48.847 C 116.335 48.020,116.541 47.770,116.308 47.770 C 116.255 47.770,115.813 48.212,115.325 48.753 M113.208 50.567 L 112.320 51.550 113.303 50.661 C 114.219 49.834,114.425 49.584,114.191 49.584 C 114.139 49.584,113.697 50.026,113.208 50.567 M286.319 50.586 C 286.319 50.638,286.761 51.080,287.302 51.569 L 288.284 52.457 287.396 51.474 C 286.568 50.558,286.319 50.352,286.319 50.586 M240.438 51.319 C 241.395 51.379,242.959 51.379,243.915 51.319 C 244.872 51.259,244.089 51.210,242.177 51.210 C 240.265 51.210,239.482 51.259,240.438 51.319 M110.658 52.759 C 109.923 53.507,109.390 54.119,109.473 54.119 C 109.557 54.119,110.226 53.507,110.960 52.759 C 111.694 52.011,112.227 51.398,112.144 51.398 C 112.061 51.398,111.392 52.011,110.658 52.759 M233.265 51.735 C 232.271 51.880,231.318 52.064,231.148 52.145 C 230.699 52.357,234.677 51.982,235.873 51.700 L 236.886 51.460 235.979 51.466 C 235.480 51.469,234.259 51.591,233.265 51.735 M248.375 51.678 C 250.228 52.064,253.368 52.335,252.408 52.026 C 251.966 51.884,250.605 51.691,249.385 51.597 C 247.810 51.476,247.517 51.499,248.375 51.678 M228.723 52.645 C 226.838 53.080,221.582 54.789,221.716 54.924 C 221.783 54.990,223.077 54.643,224.592 54.151 C 226.107 53.660,228.098 53.102,229.017 52.912 C 229.936 52.721,230.688 52.506,230.688 52.435 C 230.688 52.258,230.153 52.315,228.723 52.645 M254.724 52.780 C 256.695 53.328,257.546 53.299,255.782 52.743 C 255.034 52.507,254.150 52.325,253.817 52.337 C 253.485 52.349,253.893 52.549,254.724 52.780 M288.442 52.316 C 288.439 52.405,290.519 54.582,293.065 57.154 C 295.612 59.725,298.621 62.850,299.753 64.097 C 301.664 66.203,301.695 66.224,300.190 64.399 C 298.529 62.386,288.455 52.024,288.442 52.316 M257.899 53.464 C 258.148 53.618,258.692 53.835,259.108 53.946 C 259.633 54.087,259.726 54.063,259.410 53.868 C 259.161 53.714,258.617 53.497,258.201 53.386 C 257.676 53.245,257.584 53.269,257.899 53.464 M261.182 54.702 C 261.907 55.047,262.627 55.329,262.782 55.329 C 262.937 55.329,264.171 55.871,265.524 56.535 C 266.877 57.198,268.035 57.690,268.097 57.628 C 268.238 57.486,263.559 55.212,262.132 54.728 C 260.207 54.076,259.846 54.066,261.182 54.702 M106.122 56.992 C 104.884 58.239,103.938 59.259,104.021 59.259 C 104.104 59.259,105.186 58.239,106.425 56.992 C 107.664 55.745,108.609 54.724,108.526 54.724 C 108.443 54.724,107.361 55.745,106.122 56.992 M217.917 56.493 C 216.297 57.279,214.801 58.096,214.591 58.307 C 214.382 58.519,215.435 58.072,216.931 57.315 C 218.428 56.557,219.796 55.936,219.972 55.935 C 220.149 55.934,220.557 55.734,220.879 55.490 C 221.934 54.692,220.915 55.037,217.917 56.493 M269.793 58.655 C 271.651 59.833,272.067 59.833,270.295 58.655 C 269.546 58.157,268.806 57.750,268.648 57.749 C 268.491 57.748,269.006 58.156,269.793 58.655 M212.094 59.723 C 211.262 60.276,210.089 61.147,209.487 61.657 C 208.885 62.167,208.259 62.585,208.097 62.585 C 207.935 62.585,207.252 63.163,206.579 63.870 C 205.907 64.577,204.663 65.767,203.815 66.515 C 202.968 67.264,202.054 68.216,201.784 68.632 C 201.514 69.048,202.159 68.542,203.217 67.509 C 205.800 64.985,210.290 61.076,210.619 61.064 C 210.765 61.058,211.631 60.514,212.543 59.854 C 214.544 58.407,214.215 58.311,212.094 59.723 M237.864 58.942 C 236.406 59.066,235.113 59.270,234.991 59.394 C 234.869 59.518,235.586 59.517,236.584 59.392 C 238.875 59.103,245.085 59.073,247.468 59.339 C 248.599 59.465,248.982 59.445,248.486 59.285 C 247.274 58.894,240.846 58.686,237.864 58.942 M231.595 60.015 C 230.847 60.232,230.438 60.420,230.688 60.433 C 230.937 60.446,231.822 60.268,232.653 60.036 C 233.485 59.805,233.893 59.617,233.560 59.618 C 233.228 59.620,232.343 59.798,231.595 60.015 M250.113 59.770 C 250.404 59.846,250.881 59.846,251.172 59.770 C 251.463 59.694,251.224 59.632,250.642 59.632 C 250.060 59.632,249.822 59.694,250.113 59.770 M272.562 60.301 C 273.061 60.744,273.946 61.358,274.528 61.665 C 275.110 61.972,276.575 63.189,277.784 64.369 C 278.993 65.550,280.094 66.515,280.230 66.515 C 280.515 66.515,283.051 69.618,284.275 71.465 C 284.731 72.152,285.498 73.136,285.980 73.653 C 286.463 74.170,287.150 75.253,287.507 76.061 C 287.864 76.868,288.344 77.738,288.575 77.993 C 288.805 78.249,289.086 78.832,289.200 79.289 L 289.408 80.121 284.374 80.121 L 279.340 80.121 278.769 78.836 C 278.455 78.129,278.189 77.755,278.178 78.005 C 278.167 78.254,278.428 78.900,278.757 79.441 L 279.356 80.423 284.500 80.423 L 289.645 80.423 289.645 79.710 C 289.645 79.317,289.333 78.535,288.951 77.971 C 288.569 77.407,287.930 76.266,287.530 75.435 C 287.129 74.603,286.502 73.685,286.136 73.395 C 285.770 73.105,285.098 72.231,284.642 71.453 C 283.099 68.819,276.840 62.649,274.049 61.009 C 273.564 60.724,272.827 60.267,272.411 59.994 C 271.848 59.623,271.886 59.701,272.562 60.301 M253.952 60.641 C 255.190 61.036,256.257 61.304,256.324 61.237 C 256.459 61.102,252.393 59.847,251.970 59.894 C 251.822 59.910,252.714 60.247,253.952 60.641 M228.420 60.934 C 227.223 61.348,227.221 61.350,228.269 61.178 C 228.851 61.082,229.531 60.888,229.781 60.745 C 230.446 60.366,229.803 60.455,228.420 60.934 M101.571 61.905 L 100.529 63.039 101.663 61.997 C 102.286 61.424,102.797 60.913,102.797 60.863 C 102.797 60.632,102.541 60.849,101.571 61.905 M224.792 62.272 C 223.794 62.748,223.114 63.139,223.280 63.141 C 223.683 63.144,227.297 61.424,226.909 61.414 C 226.742 61.409,225.790 61.795,224.792 62.272 M98.678 65.231 C 96.542 67.719,95.767 68.712,96.497 68.027 C 97.247 67.323,100.726 63.190,100.569 63.190 C 100.492 63.190,99.641 64.108,98.678 65.231 M220.408 64.396 C 219.327 65.053,217.731 66.014,216.862 66.532 C 214.039 68.213,207.978 74.534,206.586 77.249 C 205.104 80.138,205.170 80.110,199.975 80.116 C 197.467 80.119,195.333 80.040,195.234 79.941 C 194.977 79.684,196.509 76.171,197.231 75.360 C 197.563 74.987,197.766 74.612,197.681 74.527 C 197.205 74.051,194.472 79.493,194.867 80.131 C 194.971 80.300,197.127 80.423,199.961 80.423 L 204.875 80.423 205.497 79.583 C 205.838 79.120,206.427 78.136,206.805 77.396 C 207.866 75.315,213.586 68.934,214.389 68.934 C 214.499 68.934,214.762 68.726,214.973 68.472 C 215.381 67.981,220.545 64.505,222.071 63.695 C 222.570 63.431,222.842 63.211,222.676 63.208 C 222.509 63.204,221.489 63.739,220.408 64.396 M261.658 63.460 C 261.772 63.644,262.027 63.792,262.225 63.789 C 264.457 63.759,272.265 70.031,276.073 74.912 C 278.821 78.436,278.881 78.191,276.166 74.528 C 274.704 72.554,271.235 69.067,268.646 66.969 C 266.747 65.430,261.134 62.611,261.658 63.460 M200.129 70.795 C 199.559 71.485,198.770 72.443,198.375 72.924 C 197.980 73.404,197.717 73.857,197.790 73.930 C 197.863 74.003,198.254 73.647,198.659 73.140 C 199.064 72.633,199.624 71.964,199.904 71.654 C 200.549 70.941,201.472 69.539,201.298 69.539 C 201.225 69.539,200.699 70.104,200.129 70.795 M91.912 73.923 C 91.397 74.671,91.044 75.283,91.127 75.283 C 91.211 75.283,91.700 74.671,92.215 73.923 C 92.730 73.175,93.083 72.562,93.000 72.562 C 92.916 72.562,92.427 73.175,91.912 73.923 M237.642 77.364 C 237.060 77.467,239.358 77.551,242.750 77.551 C 246.142 77.551,248.386 77.457,247.739 77.342 C 246.310 77.088,239.115 77.104,237.642 77.364 M233.409 78.178 C 231.135 78.775,228.182 79.849,227.816 80.212 C 227.615 80.411,227.718 80.433,228.118 80.279 C 230.284 79.442,233.217 78.511,234.769 78.166 C 235.767 77.944,236.243 77.758,235.828 77.752 C 235.412 77.747,234.324 77.938,233.409 78.178 M249.735 78.005 C 250.151 78.138,250.831 78.247,251.247 78.247 L 252.003 78.247 251.247 78.005 C 250.831 77.871,250.151 77.762,249.735 77.762 L 248.980 77.762 249.735 78.005 M253.968 79.015 C 255.049 79.401,256.814 80.082,257.889 80.529 C 258.965 80.976,259.713 81.214,259.552 81.058 C 259.092 80.613,254.236 78.695,253.061 78.495 C 252.436 78.388,252.807 78.601,253.968 79.015 M311.072 79.365 C 311.236 79.698,311.591 80.242,311.861 80.574 L 312.354 81.179 312.057 80.574 C 311.894 80.242,311.539 79.698,311.268 79.365 L 310.775 78.760 311.072 79.365 M225.091 81.417 C 217.074 85.701,210.115 93.138,206.077 101.738 C 204.811 104.433,204.045 106.466,204.162 106.818 C 204.220 106.990,204.583 106.257,204.969 105.190 C 208.731 94.812,216.368 86.245,226.606 80.919 C 227.105 80.660,227.377 80.447,227.211 80.447 C 227.045 80.447,226.091 80.883,225.091 81.417 M262.681 83.069 C 269.499 87.370,274.199 92.544,278.437 100.418 C 280.243 103.774,280.472 103.782,278.787 100.431 C 276.102 95.090,271.592 89.469,267.053 85.805 C 265.041 84.182,260.657 81.330,260.171 81.330 C 260.035 81.330,261.165 82.113,262.681 83.069 M312.948 82.389 C 313.321 83.054,313.756 83.734,313.915 83.900 C 314.368 84.375,313.332 82.459,312.771 81.784 C 312.495 81.451,312.574 81.723,312.948 82.389 M84.505 85.563 C 84.247 86.062,84.104 86.470,84.187 86.470 C 84.270 86.470,84.549 86.062,84.807 85.563 C 85.065 85.064,85.208 84.656,85.125 84.656 C 85.042 84.656,84.763 85.064,84.505 85.563 M241.648 84.876 C 242.271 84.942,243.292 84.942,243.915 84.876 C 244.539 84.811,244.029 84.758,242.782 84.758 C 241.534 84.758,241.024 84.811,241.648 84.876 M236.886 85.261 C 236.071 85.468,236.056 85.492,236.735 85.497 C 237.150 85.500,237.831 85.394,238.246 85.261 C 239.263 84.935,238.165 84.935,236.886 85.261 M247.317 85.220 C 248.446 85.592,250.619 85.910,249.887 85.597 C 249.554 85.454,248.670 85.255,247.921 85.154 C 247.026 85.034,246.819 85.056,247.317 85.220 M230.083 87.528 C 229.335 87.929,228.859 88.257,229.025 88.257 C 229.191 88.257,229.940 87.929,230.688 87.528 C 231.436 87.128,231.912 86.800,231.746 86.800 C 231.580 86.800,230.831 87.128,230.083 87.528 M254.195 87.141 C 254.569 87.322,254.875 87.661,254.875 87.895 C 254.875 88.141,255.023 88.228,255.227 88.103 C 255.617 87.861,254.464 86.757,253.859 86.793 C 253.670 86.804,253.821 86.961,254.195 87.141 M227.135 89.060 C 226.429 89.484,225.850 89.902,225.850 89.989 C 225.850 90.152,227.890 88.994,228.405 88.538 C 228.925 88.079,228.441 88.278,227.135 89.060 M132.426 89.794 L 172.789 89.947 172.789 93.636 C 172.789 95.666,172.896 97.219,173.026 97.088 C 173.156 96.958,173.224 95.229,173.177 93.248 L 173.091 89.645 132.577 89.643 L 92.063 89.640 132.426 89.794 M224.209 91.014 C 223.556 91.508,223.148 91.909,223.302 91.904 C 223.588 91.896,225.824 90.114,225.548 90.115 C 225.465 90.115,224.862 90.519,224.209 91.014 M251.096 91.245 C 250.597 91.824,250.069 92.517,249.922 92.785 C 249.766 93.069,249.766 93.147,249.922 92.971 C 250.070 92.804,250.657 92.160,251.227 91.539 C 251.798 90.918,252.205 90.361,252.134 90.301 C 252.062 90.241,251.595 90.666,251.096 91.245 M220.805 94.032 C 219.780 95.032,218.500 96.426,217.960 97.131 C 217.420 97.836,217.179 98.209,217.423 97.959 C 219.797 95.537,222.907 92.215,222.801 92.215 C 222.728 92.215,221.830 93.033,220.805 94.032 M310.680 94.375 C 312.518 98.024,314.276 101.902,315.493 104.988 C 316.132 106.609,316.707 107.884,316.770 107.820 C 317.117 107.473,310.268 92.215,309.766 92.215 C 309.670 92.215,310.081 93.187,310.680 94.375 M89.428 97.275 C 90.307 97.337,91.667 97.336,92.452 97.274 C 93.236 97.212,92.517 97.162,90.854 97.163 C 89.191 97.163,88.550 97.214,89.428 97.275 M102.692 97.605 C 102.417 97.909,102.192 98.264,102.192 98.394 C 102.192 98.524,102.430 98.339,102.721 97.983 C 103.247 97.339,103.314 97.336,114.635 97.421 C 120.897 97.467,125.957 97.404,125.879 97.279 C 125.528 96.711,103.218 97.025,102.692 97.605 M86.811 98.488 C 84.982 102.075,80.272 114.589,80.498 115.264 C 80.546 115.408,81.289 113.444,82.150 110.900 C 83.011 108.355,84.593 104.267,85.665 101.814 C 87.536 97.532,88.030 96.098,86.811 98.488 M154.826 97.388 C 154.802 97.555,156.588 101.587,157.690 103.855 C 158.055 104.605,158.098 104.631,157.940 104.006 C 157.728 103.170,154.869 97.094,154.826 97.388 M125.880 100.378 C 125.880 101.791,125.932 102.370,125.996 101.663 C 126.060 100.956,126.060 99.800,125.996 99.093 C 125.932 98.386,125.880 98.964,125.880 100.378 M215.385 100.702 C 214.624 101.878,214.049 102.886,214.106 102.943 C 214.163 102.999,214.850 102.037,215.632 100.805 C 216.414 99.572,216.990 98.564,216.911 98.564 C 216.832 98.564,216.145 99.526,215.385 100.702 M321.564 99.169 C 321.675 99.584,321.892 100.128,322.046 100.378 C 322.241 100.693,322.265 100.601,322.125 100.076 C 322.013 99.660,321.796 99.116,321.642 98.866 C 321.447 98.551,321.424 98.643,321.564 99.169 M101.119 100.408 C 100.689 101.256,100.388 102.000,100.450 102.062 C 100.512 102.124,100.928 101.431,101.374 100.521 C 101.820 99.611,102.121 98.866,102.043 98.866 C 101.964 98.866,101.548 99.560,101.119 100.408 M247.710 100.378 C 247.710 101.293,247.766 101.667,247.836 101.209 C 247.905 100.752,247.905 100.004,247.836 99.546 C 247.766 99.089,247.710 99.463,247.710 100.378 M77.449 99.937 C 76.942 101.049,77.039 101.286,77.587 100.276 C 77.843 99.804,77.995 99.361,77.926 99.292 C 77.857 99.223,77.642 99.513,77.449 99.937 M92.125 102.099 C 90.921 105.360,90.399 107.088,90.417 107.764 C 90.426 108.108,90.757 107.296,91.152 105.959 C 91.548 104.621,92.158 102.801,92.508 101.913 C 92.858 101.026,93.086 100.241,93.015 100.170 C 92.944 100.099,92.543 100.967,92.125 102.099 M99.660 103.697 C 98.978 105.402,99.083 105.656,99.801 104.038 C 100.125 103.307,100.337 102.655,100.271 102.589 C 100.205 102.523,99.930 103.022,99.660 103.697 M279.990 103.401 C 279.995 103.862,282.368 110.422,282.378 110.001 C 282.389 109.475,280.706 104.495,280.250 103.704 C 280.106 103.454,279.989 103.318,279.990 103.401 M248.397 104.611 C 248.508 105.026,248.725 105.571,248.879 105.820 C 249.074 106.135,249.098 106.043,248.957 105.518 C 248.846 105.102,248.629 104.558,248.475 104.308 C 248.280 103.993,248.257 104.085,248.397 104.611 M158.131 105.140 C 158.143 105.626,159.589 109.878,159.613 109.495 C 159.642 109.009,158.422 104.913,158.247 104.913 C 158.180 104.913,158.128 105.015,158.131 105.140 M249.602 107.366 C 250.208 108.539,252.266 110.792,253.496 111.631 C 254.005 111.978,253.638 111.549,252.680 110.677 C 251.723 109.806,250.587 108.492,250.157 107.758 C 249.263 106.232,248.873 105.957,249.602 107.366 M97.984 108.718 C 97.789 109.492,97.686 110.183,97.756 110.252 C 97.825 110.322,98.041 109.744,98.236 108.970 C 98.431 108.195,98.534 107.504,98.465 107.435 C 98.396 107.365,98.180 107.943,97.984 108.718 M203.512 108.269 C 203.326 108.801,203.188 109.454,203.204 109.720 C 203.221 109.986,203.423 109.602,203.654 108.865 C 204.138 107.323,204.018 106.818,203.512 108.269 M211.624 108.130 C 211.457 108.568,211.377 108.984,211.446 109.052 C 211.514 109.121,211.715 108.762,211.892 108.254 C 212.285 107.126,212.048 107.016,211.624 108.130 M272.867 108.235 C 272.763 108.403,272.877 108.460,273.124 108.365 C 273.401 108.258,273.643 108.437,273.772 108.844 C 273.885 109.202,274.045 109.427,274.126 109.346 C 274.336 109.136,273.655 107.937,273.325 107.937 C 273.175 107.937,272.968 108.071,272.867 108.235 M316.914 108.541 C 317.000 108.791,317.375 109.922,317.749 111.055 C 318.123 112.188,318.483 113.061,318.549 112.996 C 318.696 112.849,317.239 108.512,316.960 108.265 C 316.850 108.168,316.829 108.292,316.914 108.541 M89.835 109.873 C 89.647 110.618,89.506 111.610,89.522 112.076 C 89.538 112.543,89.738 111.980,89.967 110.826 C 90.439 108.449,90.352 107.820,89.835 109.873 M149.705 109.832 L 148.692 111.111 149.753 110.012 C 150.337 109.407,150.997 108.839,151.220 108.751 C 151.529 108.627,151.518 108.585,151.172 108.571 C 150.922 108.560,150.262 109.128,149.705 109.832 M271.636 109.784 C 271.148 110.301,270.070 111.186,269.241 111.749 C 268.411 112.313,267.843 112.774,267.977 112.774 C 268.406 112.774,270.714 111.053,271.790 109.931 C 272.363 109.333,272.763 108.844,272.678 108.844 C 272.594 108.844,272.125 109.267,271.636 109.784 M151.502 109.297 C 151.491 109.463,151.676 110.212,151.912 110.960 C 152.148 111.708,152.339 112.048,152.338 111.716 C 152.335 111.085,151.534 108.768,151.502 109.297 M129.238 109.728 C 129.333 109.883,129.988 110.447,130.692 110.983 L 131.973 111.957 130.650 110.703 C 129.367 109.486,128.881 109.151,129.238 109.728 M202.573 112.001 C 202.380 112.933,202.276 113.859,202.343 114.059 C 202.410 114.259,202.634 113.562,202.840 112.511 C 203.047 111.459,203.151 110.533,203.071 110.453 C 202.991 110.373,202.767 111.070,202.573 112.001 M274.579 110.960 C 274.594 111.746,275.070 113.036,275.081 112.320 C 275.086 111.988,274.973 111.444,274.830 111.111 C 274.671 110.741,274.574 110.682,274.579 110.960 M160.005 111.867 C 160.009 112.283,160.115 113.031,160.242 113.530 L 160.473 114.437 160.478 113.530 C 160.481 113.031,160.375 112.283,160.242 111.867 L 160.000 111.111 160.005 111.867 M145.276 112.796 C 144.278 113.282,143.636 113.680,143.850 113.680 C 144.295 113.681,147.241 112.233,147.241 112.013 C 147.241 111.827,147.386 111.769,145.276 112.796 M282.692 112.043 C 282.692 112.196,282.914 113.545,283.185 115.042 C 283.872 118.842,283.862 127.069,283.164 131.015 C 282.875 132.649,282.703 134.051,282.781 134.129 C 283.008 134.355,283.588 130.763,283.935 126.984 C 284.281 123.229,284.109 119.035,283.434 114.772 C 283.073 112.487,282.688 111.075,282.692 112.043 M134.240 113.228 C 134.656 113.465,135.200 113.659,135.450 113.658 C 135.699 113.658,135.445 113.459,134.886 113.216 C 133.598 112.657,133.253 112.663,134.240 113.228 M255.934 113.077 C 256.099 113.344,258.774 114.116,258.944 113.945 C 259.011 113.879,258.331 113.607,257.432 113.341 C 256.534 113.076,255.860 112.957,255.934 113.077 M209.977 113.983 C 209.863 114.506,209.832 114.997,209.909 115.074 C 209.986 115.151,210.136 114.779,210.242 114.248 C 210.494 112.988,210.250 112.743,209.977 113.983 M265.306 113.538 C 264.641 113.758,264.369 113.941,264.701 113.946 C 265.034 113.952,265.714 113.769,266.213 113.541 C 267.356 113.018,266.890 113.016,265.306 113.538 M72.433 114.156 C 72.322 114.599,72.289 115.020,72.360 115.091 C 72.431 115.163,72.581 114.858,72.692 114.415 C 72.803 113.972,72.836 113.551,72.765 113.480 C 72.693 113.409,72.544 113.713,72.433 114.156 M318.858 114.286 C 319.066 115.485,319.569 116.593,319.545 115.797 C 319.537 115.548,319.338 114.868,319.103 114.286 L 318.675 113.228 318.858 114.286 M96.820 114.588 C 96.820 115.170,96.882 115.408,96.958 115.117 C 97.034 114.826,97.034 114.350,96.958 114.059 C 96.882 113.768,96.820 114.006,96.820 114.588 M138.549 114.204 C 139.172 114.269,140.193 114.269,140.816 114.204 C 141.440 114.138,140.930 114.085,139.683 114.085 C 138.435 114.085,137.925 114.138,138.549 114.204 M152.895 115.495 C 152.990 116.410,153.117 117.215,153.178 117.284 C 153.390 117.526,153.225 115.337,152.976 114.588 C 152.813 114.100,152.784 114.422,152.895 115.495 M260.552 114.205 C 261.263 114.269,262.352 114.268,262.971 114.203 C 263.590 114.138,263.008 114.086,261.678 114.087 C 260.348 114.088,259.841 114.141,260.552 114.205 M275.488 114.739 C 275.478 115.072,275.582 115.888,275.720 116.553 C 275.930 117.570,275.970 117.618,275.969 116.856 C 275.968 115.797,275.516 113.809,275.488 114.739 M160.614 115.495 C 160.614 116.077,160.677 116.315,160.753 116.024 C 160.829 115.733,160.829 115.257,160.753 114.966 C 160.677 114.675,160.614 114.913,160.614 115.495 M88.782 117.204 C 88.549 119.956,88.577 124.016,88.846 126.531 C 88.953 127.532,89.044 125.330,89.048 121.618 C 89.053 117.918,89.038 114.890,89.017 114.890 C 88.995 114.890,88.890 115.931,88.782 117.204 M201.763 116.603 C 201.404 119.123,201.512 128.724,201.917 130.159 L 202.257 131.368 202.124 130.159 C 201.720 126.491,201.638 121.588,201.929 118.540 C 202.282 114.853,202.181 113.677,201.763 116.603 M79.819 117.158 C 79.606 117.916,79.502 118.605,79.587 118.690 C 79.672 118.775,79.901 118.210,80.096 117.435 C 80.558 115.601,80.321 115.364,79.819 117.158 M96.534 117.460 C 96.536 118.292,96.595 118.596,96.664 118.136 C 96.734 117.677,96.732 116.997,96.660 116.625 C 96.589 116.253,96.532 116.629,96.534 117.460 M319.766 117.309 C 319.871 117.891,320.077 118.639,320.222 118.972 C 320.404 119.387,320.427 119.245,320.295 118.519 C 320.189 117.937,319.984 117.188,319.838 116.856 C 319.657 116.441,319.634 116.583,319.766 117.309 M71.526 117.482 C 71.415 117.925,71.382 118.346,71.453 118.417 C 71.524 118.488,71.674 118.184,71.785 117.741 C 71.896 117.298,71.929 116.877,71.858 116.806 C 71.786 116.735,71.637 117.039,71.526 117.482 M160.982 123.054 C 160.979 129.026,161.000 129.290,161.243 126.304 C 161.392 124.466,161.394 121.641,161.246 119.803 C 161.006 116.819,160.985 117.084,160.982 123.054 M153.374 119.577 C 153.377 120.408,153.435 120.712,153.505 120.253 C 153.574 119.793,153.573 119.113,153.501 118.741 C 153.429 118.369,153.372 118.745,153.374 119.577 M209.116 119.796 C 209.011 120.673,208.943 122.343,208.966 123.507 C 208.998 125.183,209.057 124.871,209.251 122.006 C 209.507 118.202,209.440 117.098,209.116 119.796 M328.047 118.695 C 328.050 119.014,328.190 119.478,328.358 119.728 C 328.583 120.059,328.611 119.937,328.462 119.274 C 328.214 118.163,328.041 117.921,328.047 118.695 M276.122 119.728 C 276.122 120.476,276.181 120.782,276.253 120.408 C 276.325 120.034,276.325 119.422,276.253 119.048 C 276.181 118.673,276.122 118.980,276.122 119.728 M78.973 120.248 C 78.773 120.915,78.621 121.717,78.636 122.031 C 78.651 122.344,78.852 121.920,79.084 121.088 C 79.589 119.271,79.490 118.521,78.973 120.248 M320.521 119.879 C 320.507 120.045,320.685 120.862,320.916 121.693 C 321.147 122.525,321.338 122.933,321.341 122.600 C 321.345 121.957,320.565 119.367,320.521 119.879 M70.783 120.686 C 70.764 120.963,70.670 121.439,70.574 121.744 C 70.409 122.269,70.418 122.270,70.746 121.759 C 70.936 121.463,71.030 120.987,70.955 120.701 C 70.832 120.233,70.815 120.231,70.783 120.686 M153.681 123.054 C 153.681 123.968,153.738 124.342,153.807 123.885 C 153.876 123.428,153.876 122.680,153.807 122.222 C 153.738 121.765,153.681 122.139,153.681 123.054 M328.954 122.474 C 328.957 122.876,329.092 123.409,329.256 123.658 C 329.465 123.977,329.496 123.798,329.359 123.054 C 329.120 121.750,328.948 121.504,328.954 122.474 M78.005 124.414 C 77.809 125.355,77.710 126.186,77.784 126.259 C 77.858 126.333,78.074 125.620,78.264 124.673 C 78.454 123.727,78.553 122.897,78.484 122.828 C 78.416 122.760,78.200 123.473,78.005 124.414 M321.456 123.810 C 321.452 124.142,321.624 125.094,321.837 125.926 C 322.051 126.757,322.229 127.166,322.233 126.833 C 322.237 126.500,322.065 125.548,321.851 124.717 C 321.637 123.885,321.460 123.477,321.456 123.810 M96.534 125.624 C 96.536 126.455,96.595 126.759,96.664 126.300 C 96.734 125.840,96.732 125.160,96.660 124.788 C 96.589 124.416,96.532 124.792,96.534 125.624 M69.728 125.510 C 69.476 126.770,69.720 127.015,69.992 125.775 C 70.107 125.252,70.138 124.761,70.061 124.684 C 69.984 124.607,69.834 124.979,69.728 125.510 M153.379 126.379 C 153.379 127.294,153.435 127.668,153.505 127.211 C 153.574 126.754,153.574 126.005,153.505 125.548 C 153.435 125.091,153.379 125.465,153.379 126.379 M276.116 126.228 C 276.119 126.893,276.181 127.130,276.253 126.754 C 276.325 126.378,276.323 125.834,276.247 125.544 C 276.171 125.255,276.112 125.563,276.116 126.228 M209.298 126.833 C 209.301 127.498,209.363 127.735,209.435 127.359 C 209.508 126.982,209.505 126.438,209.429 126.149 C 209.354 125.860,209.294 126.168,209.298 126.833 M329.922 126.984 C 329.919 127.400,330.026 128.080,330.159 128.496 C 330.484 129.512,330.484 128.414,330.159 127.135 C 329.951 126.321,329.927 126.305,329.922 126.984 M77.302 127.650 C 77.208 128.032,77.059 129.093,76.972 130.008 C 76.835 131.428,76.875 131.342,77.247 129.418 C 77.650 127.329,77.690 126.072,77.302 127.650 M96.820 128.496 C 96.820 129.078,96.882 129.316,96.958 129.025 C 97.034 128.734,97.034 128.258,96.958 127.967 C 96.882 127.676,96.820 127.914,96.820 128.496 M322.342 128.193 C 322.338 128.443,322.525 129.599,322.758 130.763 C 323.174 132.847,323.179 132.853,323.024 131.172 C 322.872 129.521,322.357 127.272,322.342 128.193 M89.261 129.403 C 89.261 129.985,89.324 130.223,89.400 129.932 C 89.476 129.641,89.476 129.165,89.400 128.874 C 89.324 128.583,89.261 128.821,89.261 129.403 M275.611 130.033 C 275.497 130.889,275.465 131.651,275.540 131.725 C 275.614 131.799,275.771 131.163,275.888 130.310 C 276.005 129.457,276.038 128.696,275.959 128.618 C 275.881 128.540,275.725 129.176,275.611 130.033 M153.056 129.705 C 153.056 130.287,153.118 130.525,153.194 130.234 C 153.270 129.943,153.270 129.467,153.194 129.176 C 153.118 128.885,153.056 129.123,153.056 129.705 M68.824 130.502 C 68.717 131.282,68.688 131.979,68.759 132.050 C 68.831 132.121,68.984 131.548,69.099 130.777 C 69.215 130.006,69.244 129.310,69.164 129.230 C 69.084 129.150,68.931 129.722,68.824 130.502 M160.614 130.612 C 160.614 131.194,160.677 131.432,160.753 131.141 C 160.829 130.850,160.829 130.374,160.753 130.083 C 160.677 129.792,160.614 130.030,160.614 130.612 M89.524 130.975 C 89.483 131.662,90.124 134.618,90.280 134.462 C 90.347 134.394,90.212 133.467,89.978 132.400 C 89.745 131.334,89.541 130.692,89.524 130.975 M209.847 131.242 C 209.859 131.644,209.992 132.245,210.143 132.577 C 210.334 132.999,210.361 132.816,210.232 131.973 C 210.019 130.569,209.817 130.186,209.847 131.242 M76.190 134.845 C 75.985 136.524,75.879 137.961,75.956 138.037 C 76.033 138.114,76.263 136.802,76.467 135.121 C 76.670 133.440,76.776 132.004,76.701 131.929 C 76.626 131.854,76.396 133.166,76.190 134.845 M160.104 133.196 C 159.989 133.967,159.962 134.666,160.045 134.749 C 160.128 134.832,160.291 134.269,160.407 133.498 C 160.522 132.727,160.549 132.028,160.466 131.945 C 160.383 131.862,160.220 132.425,160.104 133.196 M202.309 132.275 C 202.293 132.608,202.469 133.560,202.700 134.392 C 202.931 135.223,203.120 135.631,203.119 135.299 C 203.116 134.430,202.345 131.551,202.309 132.275 M330.794 132.905 C 330.810 133.390,330.939 134.127,331.081 134.543 C 331.254 135.052,331.281 134.806,331.163 133.787 C 330.966 132.086,330.748 131.564,330.794 132.905 M97.805 133.636 C 97.925 134.218,98.140 134.818,98.283 134.971 C 98.426 135.123,98.397 134.714,98.219 134.063 C 97.805 132.547,97.519 132.252,97.805 133.636 M323.265 133.787 C 323.261 134.286,323.440 135.986,323.664 137.566 L 324.072 140.438 323.913 137.868 C 323.737 135.035,323.281 132.160,323.265 133.787 M282.108 135.940 C 281.915 136.709,281.818 137.399,281.894 137.475 C 282.043 137.624,282.235 137.048,282.541 135.525 C 282.842 134.033,282.508 134.352,282.108 135.940 M90.417 135.333 C 90.396 136.140,92.349 141.989,92.834 142.573 C 93.145 142.947,97.722 143.008,125.348 143.008 L 157.500 143.008 157.837 142.378 C 158.023 142.031,158.108 141.681,158.026 141.599 C 157.945 141.518,157.789 141.734,157.679 142.080 L 157.479 142.709 125.265 142.632 L 93.051 142.555 92.459 141.049 C 92.134 140.221,91.545 138.452,91.150 137.118 C 90.756 135.785,90.426 134.982,90.417 135.333 M158.938 138.066 C 158.487 139.671,158.172 141.039,158.238 141.106 C 158.368 141.235,159.449 137.757,159.785 136.130 C 160.185 134.191,159.743 135.202,158.938 138.066 M67.920 137.535 C 67.806 138.765,67.771 139.830,67.843 139.902 C 68.031 140.090,68.421 136.178,68.262 135.699 C 68.188 135.479,68.035 136.305,67.920 137.535 M203.217 136.357 C 203.217 136.606,203.334 137.082,203.477 137.415 C 203.641 137.796,203.737 137.852,203.737 137.566 C 203.737 137.317,203.620 136.841,203.477 136.508 C 203.313 136.127,203.217 136.071,203.217 136.357 M331.438 137.868 C 331.438 138.450,331.500 138.689,331.577 138.398 C 331.653 138.107,331.653 137.630,331.577 137.339 C 331.500 137.048,331.438 137.286,331.438 137.868 M281.209 138.957 C 280.996 139.547,280.888 140.097,280.970 140.179 C 281.052 140.261,281.282 139.833,281.481 139.229 C 281.954 137.797,281.715 137.558,281.209 138.957 M203.877 138.473 C 204.234 139.862,205.110 142.304,205.368 142.630 C 205.605 142.929,213.462 143.008,242.834 143.008 L 280.001 143.008 280.456 141.917 C 280.707 141.317,280.850 140.764,280.773 140.688 C 280.697 140.611,280.475 141.034,280.279 141.628 L 279.923 142.706 242.780 142.706 L 205.637 142.706 205.004 140.967 C 204.354 139.180,203.670 137.667,203.877 138.473 M75.408 142.004 C 75.095 145.542,75.090 156.612,75.399 160.338 C 75.812 165.317,75.916 163.408,75.570 157.189 C 75.340 153.047,75.337 149.596,75.561 145.447 C 75.893 139.295,75.811 137.445,75.408 142.004 M331.767 141.497 C 331.767 142.577,331.822 143.020,331.889 142.479 C 331.956 141.939,331.956 141.054,331.889 140.514 C 331.822 139.974,331.767 140.416,331.767 141.497 M324.263 151.323 C 324.263 156.810,324.350 160.484,324.457 159.486 C 324.711 157.113,324.713 145.145,324.460 143.008 C 324.352 142.094,324.263 145.835,324.263 151.323 M67.509 144.067 C 67.511 144.898,67.570 145.202,67.639 144.743 C 67.709 144.283,67.707 143.603,67.635 143.231 C 67.564 142.859,67.507 143.235,67.509 144.067 M332.072 145.578 C 332.073 146.742,332.128 147.181,332.193 146.554 C 332.259 145.927,332.258 144.974,332.191 144.438 C 332.124 143.901,332.071 144.414,332.072 145.578 M331.827 158.887 C 331.706 160.983,331.673 162.764,331.753 162.844 C 331.833 162.924,331.997 161.274,332.118 159.178 C 332.239 157.082,332.273 155.301,332.193 155.221 C 332.113 155.141,331.948 156.791,331.827 158.887 M67.513 158.125 C 67.513 159.040,67.570 159.414,67.639 158.957 C 67.708 158.500,67.708 157.751,67.639 157.294 C 67.570 156.837,67.513 157.211,67.513 158.125 M67.789 163.114 C 67.783 163.613,67.884 164.701,68.013 165.533 C 68.206 166.769,68.252 166.852,68.267 165.986 C 68.277 165.404,68.176 164.316,68.043 163.568 C 67.867 162.578,67.797 162.455,67.789 163.114 M323.530 165.861 C 323.168 169.252,323.235 171.117,323.614 168.188 C 323.965 165.472,324.199 162.358,324.052 162.358 C 323.971 162.358,323.736 163.935,323.530 165.861 M331.438 164.475 C 331.438 165.057,331.500 165.295,331.577 165.004 C 331.653 164.713,331.653 164.237,331.577 163.946 C 331.500 163.655,331.438 163.893,331.438 164.475 M76.086 166.440 C 76.175 167.604,76.356 169.101,76.487 169.766 C 76.920 171.963,76.793 169.414,76.336 166.742 L 75.922 164.324 76.086 166.440 M97.119 168.934 L 97.203 172.789 186.546 172.789 L 275.888 172.789 275.888 169.010 L 275.888 165.231 222.373 165.229 L 168.859 165.227 222.222 165.380 L 275.586 165.533 275.671 169.085 L 275.756 172.638 186.538 172.638 L 97.320 172.638 97.413 168.858 C 97.464 166.779,97.400 165.079,97.270 165.079 C 97.140 165.079,97.072 166.814,97.119 168.934 M330.967 168.070 C 330.855 168.628,330.778 169.375,330.797 169.728 C 330.815 170.081,330.950 169.758,331.097 169.010 C 331.245 168.262,331.321 167.515,331.267 167.352 C 331.214 167.188,331.078 167.511,330.967 168.070 M322.658 172.188 C 322.456 173.485,322.347 174.602,322.415 174.670 C 322.593 174.848,323.281 170.598,323.141 170.180 C 323.077 169.987,322.860 170.891,322.658 172.188 M68.683 170.975 C 68.688 171.308,68.801 171.920,68.934 172.336 L 69.176 173.091 69.185 172.336 C 69.190 171.920,69.077 171.308,68.934 170.975 L 68.674 170.370 68.683 170.975 M76.867 171.882 C 76.867 172.381,76.971 173.197,77.098 173.696 L 77.328 174.603 77.328 173.696 C 77.328 173.197,77.224 172.381,77.098 171.882 L 76.867 170.975 76.867 171.882 M330.050 174.213 C 329.948 174.594,329.876 175.178,329.891 175.510 C 329.905 175.843,330.042 175.584,330.194 174.935 C 330.489 173.679,330.363 173.046,330.050 174.213 M321.434 178.432 C 321.052 180.151,320.663 181.897,320.569 182.313 C 320.475 182.729,320.485 182.991,320.590 182.895 C 320.847 182.661,322.349 175.965,322.226 175.597 C 322.173 175.437,321.816 176.713,321.434 178.432 M69.590 175.964 C 69.606 176.749,70.082 178.040,70.092 177.324 C 70.097 176.992,69.984 176.447,69.841 176.115 C 69.682 175.744,69.585 175.686,69.590 175.964 M77.899 177.475 C 78.095 178.933,78.561 180.375,78.584 179.592 C 78.592 179.342,78.399 178.458,78.157 177.627 L 77.717 176.115 77.899 177.475 M329.138 178.848 C 329.034 179.118,328.963 179.634,328.980 179.994 C 329.000 180.409,329.103 180.262,329.260 179.594 C 329.524 178.470,329.452 178.030,329.138 178.848 M78.659 180.650 C 78.655 181.294,79.435 183.883,79.479 183.371 C 79.493 183.205,79.315 182.389,79.084 181.557 C 78.853 180.726,78.662 180.317,78.659 180.650 M328.231 182.778 C 328.127 183.048,328.054 183.496,328.068 183.774 C 328.083 184.051,328.214 183.877,328.361 183.386 C 328.646 182.432,328.545 181.960,328.231 182.778 M319.456 186.122 C 318.996 187.714,318.680 189.075,318.753 189.148 C 318.826 189.221,319.256 187.974,319.710 186.376 C 320.163 184.779,320.479 183.417,320.413 183.351 C 320.346 183.284,319.915 184.531,319.456 186.122 M71.395 184.127 C 71.395 184.376,71.512 184.853,71.655 185.185 C 71.819 185.566,71.915 185.622,71.915 185.336 C 71.915 185.087,71.798 184.611,71.655 184.278 C 71.492 183.897,71.395 183.841,71.395 184.127 M79.558 184.278 C 79.561 184.611,79.755 185.359,79.990 185.941 L 80.418 186.999 80.230 185.941 C 80.127 185.359,79.933 184.611,79.799 184.278 L 79.555 183.673 79.558 184.278 M72.303 187.453 C 72.303 187.702,72.419 188.178,72.562 188.511 C 72.726 188.892,72.822 188.948,72.822 188.662 C 72.822 188.413,72.705 187.937,72.562 187.604 C 72.399 187.223,72.303 187.167,72.303 187.453 M80.446 187.453 C 80.449 187.702,80.643 188.314,80.878 188.813 L 81.305 189.720 81.126 188.813 C 80.901 187.678,80.439 186.753,80.446 187.453 M317.647 191.873 C 317.215 193.159,316.913 194.263,316.977 194.326 C 317.040 194.389,317.445 193.389,317.878 192.103 C 318.310 190.817,318.612 189.713,318.549 189.650 C 318.485 189.586,318.080 190.587,317.647 191.873 M81.367 190.174 C 81.362 190.423,81.544 191.036,81.773 191.534 C 82.308 192.702,82.315 192.159,81.784 190.779 C 81.560 190.197,81.372 189.924,81.367 190.174 M73.210 190.476 C 73.210 190.726,73.326 191.202,73.469 191.534 C 73.633 191.916,73.729 191.971,73.729 191.686 C 73.729 191.436,73.612 190.960,73.469 190.627 C 73.306 190.246,73.210 190.190,73.210 190.476 M82.237 192.818 C 82.237 193.271,83.512 196.559,83.638 196.432 C 83.745 196.325,82.578 192.840,82.361 192.618 C 82.293 192.549,82.237 192.638,82.237 192.818 M315.494 197.657 C 304.496 225.584,282.143 249.663,254.764 263.078 C 252.662 264.108,250.999 265.007,251.068 265.076 C 251.259 265.268,260.078 260.744,263.492 258.702 C 284.544 246.113,301.118 228.177,311.869 206.349 C 314.306 201.403,317.002 195.057,316.768 194.823 C 316.706 194.761,316.133 196.036,315.494 197.657 M83.749 196.913 C 83.749 197.016,84.375 198.569,85.140 200.364 C 96.557 227.150,117.963 249.868,144.174 263.017 C 145.896 263.881,147.354 264.538,147.415 264.477 C 147.475 264.417,145.859 263.527,143.824 262.500 C 117.989 249.464,96.882 227.012,85.503 200.461 C 84.096 197.178,83.749 196.476,83.749 196.913 M321.727 202.604 C 321.540 203.138,321.441 203.628,321.506 203.693 C 321.570 203.757,321.776 203.373,321.962 202.839 C 322.148 202.304,322.248 201.814,322.183 201.750 C 322.118 201.685,321.913 202.069,321.727 202.604 M320.387 205.759 C 319.677 207.248,319.776 207.501,320.519 206.094 C 320.856 205.455,321.079 204.878,321.013 204.813 C 320.948 204.747,320.666 205.173,320.387 205.759 M315.495 215.571 C 315.237 216.070,315.094 216.478,315.177 216.478 C 315.260 216.478,315.539 216.070,315.797 215.571 C 316.055 215.072,316.198 214.664,316.115 214.664 C 316.032 214.664,315.753 215.072,315.495 215.571 M313.962 218.216 C 313.503 219.006,312.930 219.992,312.688 220.408 L 312.249 221.164 312.814 220.484 C 313.474 219.690,315.141 216.780,314.937 216.780 C 314.860 216.780,314.421 217.426,313.962 218.216 M87.838 222.393 C 88.119 222.903,88.618 223.652,88.946 224.056 L 89.544 224.792 89.033 223.865 C 88.752 223.355,88.253 222.607,87.924 222.202 L 87.327 221.466 87.838 222.393 M308.530 226.833 C 308.064 227.540,307.876 227.958,308.112 227.763 C 308.566 227.388,309.724 225.548,309.505 225.548 C 309.435 225.548,308.996 226.126,308.530 226.833 M91.317 227.605 C 92.038 228.653,92.771 229.600,92.946 229.708 C 93.304 229.929,91.150 226.855,90.455 226.153 C 90.208 225.903,90.596 226.557,91.317 227.605 M96.120 234.089 C 96.943 235.128,98.245 236.659,99.013 237.491 C 99.781 238.322,99.164 237.472,97.642 235.601 C 96.120 233.730,94.819 232.200,94.749 232.200 C 94.680 232.200,95.297 233.050,96.120 234.089 M299.154 238.927 L 297.959 240.212 299.244 239.016 C 300.439 237.905,300.668 237.642,300.439 237.642 C 300.390 237.642,299.812 238.220,299.154 238.927 M101.436 240.363 C 102.086 241.028,102.685 241.572,102.768 241.572 C 102.851 241.572,102.388 241.028,101.738 240.363 C 101.089 239.698,100.490 239.153,100.406 239.153 C 100.323 239.153,100.787 239.698,101.436 240.363 M292.975 245.351 L 288.294 250.189 293.113 245.439 C 295.764 242.827,297.871 240.650,297.795 240.602 C 297.719 240.553,295.550 242.691,292.975 245.351 M105.820 245.049 C 107.393 246.629,108.748 247.921,108.832 247.921 C 108.915 247.921,107.696 246.629,106.122 245.049 C 104.549 243.469,103.194 242.177,103.111 242.177 C 103.028 242.177,104.247 243.469,105.820 245.049 M110.355 249.220 C 110.355 249.303,111.308 250.215,112.472 251.247 C 113.636 252.279,114.588 253.055,114.588 252.972 C 114.588 252.889,113.636 251.977,112.472 250.945 C 111.308 249.913,110.355 249.137,110.355 249.220 M286.550 251.407 C 285.929 251.984,285.528 252.457,285.659 252.457 C 285.791 252.457,286.360 251.980,286.924 251.398 C 288.240 250.040,288.014 250.045,286.550 251.407 M282.237 255.074 C 280.943 256.260,280.904 256.325,281.964 255.527 C 283.083 254.685,284.148 253.648,283.862 253.678 C 283.800 253.684,283.069 254.312,282.237 255.074 M118.861 256.446 C 119.996 257.479,123.254 259.849,122.449 259.056 C 122.200 258.810,121.043 257.898,119.879 257.028 C 118.715 256.158,118.257 255.896,118.861 256.446 M123.054 259.543 C 123.054 259.626,124.074 260.383,125.321 261.224 C 126.568 262.066,127.589 262.687,127.589 262.603 C 127.589 262.520,126.568 261.764,125.321 260.922 C 124.074 260.081,123.054 259.460,123.054 259.543 M274.603 260.650 C 273.896 261.150,273.318 261.627,273.318 261.709 C 273.318 261.791,273.930 261.437,274.679 260.922 C 275.427 260.407,276.039 259.925,276.039 259.849 C 276.039 259.641,275.982 259.673,274.603 260.650 M271.726 262.596 C 271.105 263.018,270.597 263.428,270.597 263.507 C 270.597 263.587,271.141 263.292,271.807 262.851 C 272.863 262.153,273.220 261.829,272.935 261.829 C 272.890 261.829,272.346 262.174,271.726 262.596 M128.470 263.252 C 128.872 263.550,129.756 264.107,130.435 264.488 C 131.115 264.869,131.342 264.937,130.940 264.639 C 130.539 264.341,129.654 263.785,128.975 263.403 C 128.296 263.022,128.069 262.954,128.470 263.252 M147.997 264.760 C 148.401 265.159,153.612 267.350,153.774 267.189 C 153.843 267.119,152.708 266.553,151.251 265.930 C 147.817 264.462,147.625 264.393,147.997 264.760 M249.433 265.608 C 249.017 265.846,248.813 266.041,248.980 266.041 C 249.146 266.041,249.622 265.846,250.038 265.608 C 250.454 265.371,250.658 265.176,250.491 265.176 C 250.325 265.176,249.849 265.371,249.433 265.608 M247.348 266.390 C 246.950 266.549,246.700 266.755,246.793 266.848 C 246.885 266.941,247.347 266.807,247.819 266.551 C 248.769 266.037,248.480 265.937,247.348 266.390 M245.049 267.412 C 244.550 267.640,244.346 267.833,244.596 267.841 C 244.845 267.848,245.389 267.660,245.805 267.423 C 246.767 266.872,246.243 266.865,245.049 267.412 M135.450 267.410 C 135.450 267.493,135.994 267.839,136.659 268.178 C 137.324 268.518,137.868 268.727,137.868 268.644 C 137.868 268.561,137.324 268.215,136.659 267.876 C 135.994 267.537,135.450 267.327,135.450 267.410 M154.195 267.352 C 154.195 267.582,160.243 269.790,160.411 269.621 C 160.495 269.538,159.368 269.052,157.908 268.542 C 156.448 268.032,155.015 267.523,154.724 267.411 C 154.433 267.298,154.195 267.272,154.195 267.352 M242.630 268.319 C 242.132 268.547,241.927 268.740,242.177 268.748 C 242.426 268.755,242.971 268.567,243.386 268.330 C 244.349 267.779,243.825 267.772,242.630 268.319 M260.847 268.954 C 260.057 269.365,259.410 269.769,259.410 269.852 C 259.410 269.935,260.091 269.658,260.922 269.237 C 261.754 268.815,262.434 268.405,262.434 268.324 C 262.434 268.124,262.461 268.114,260.847 268.954 M240.060 269.237 C 239.478 269.461,239.206 269.648,239.456 269.653 C 239.705 269.659,240.317 269.476,240.816 269.248 C 241.984 268.713,241.441 268.705,240.060 269.237 M160.847 269.817 C 160.847 270.005,165.816 271.511,166.332 271.480 C 166.558 271.466,165.737 271.136,164.508 270.746 C 161.726 269.863,160.847 269.640,160.847 269.817 M235.712 270.542 C 234.235 270.974,233.170 271.374,233.345 271.432 C 233.691 271.548,238.851 270.040,238.851 269.823 C 238.851 269.635,238.706 269.668,235.712 270.542 M255.391 271.642 C 254.594 272.024,253.846 272.436,253.728 272.557 C 253.467 272.826,255.343 272.062,256.559 271.403 C 257.903 270.676,257.038 270.853,255.391 271.642 M166.942 271.654 C 167.174 271.886,173.148 273.322,173.758 273.292 C 174.057 273.277,172.736 272.875,170.824 272.399 C 167.232 271.504,166.688 271.399,166.942 271.654 M230.441 272.024 C 229.391 272.270,228.589 272.529,228.659 272.599 C 228.828 272.768,231.926 272.108,232.502 271.781 C 233.098 271.442,232.737 271.484,230.441 272.024 M226.455 273.016 C 225.857 273.208,225.825 273.258,226.304 273.258 C 226.636 273.258,227.249 273.149,227.664 273.016 C 228.263 272.824,228.294 272.774,227.816 272.774 C 227.483 272.774,226.871 272.883,226.455 273.016 M222.222 273.810 C 220.975 274.044,218.730 274.421,217.234 274.646 C 215.737 274.872,214.930 275.074,215.441 275.094 C 216.441 275.135,225.261 273.706,225.503 273.464 C 225.731 273.236,224.688 273.346,222.222 273.810 M177.475 274.096 C 178.556 274.318,179.713 274.489,180.045 274.477 C 180.378 274.465,179.766 274.274,178.685 274.052 C 177.604 273.830,176.447 273.659,176.115 273.671 C 175.782 273.683,176.395 273.874,177.475 274.096 M150.869 274.779 C 151.119 274.933,151.663 275.150,152.079 275.261 C 152.604 275.402,152.696 275.378,152.381 275.183 C 152.132 275.029,151.587 274.812,151.172 274.701 C 150.646 274.560,150.554 274.584,150.869 274.779 M181.859 274.847 C 182.525 274.985,183.613 275.087,184.278 275.074 C 185.463 275.052,185.457 275.047,183.976 274.816 C 181.826 274.481,180.205 274.505,181.859 274.847 M186.171 275.346 C 186.547 275.418,187.092 275.416,187.381 275.340 C 187.670 275.264,187.362 275.205,186.697 275.209 C 186.032 275.212,185.795 275.274,186.171 275.346 M208.768 275.497 C 206.939 275.651,201.497 275.724,196.674 275.658 C 190.617 275.576,188.654 275.621,190.325 275.804 C 193.218 276.122,210.913 275.867,212.850 275.480 C 214.705 275.109,213.311 275.115,208.768 275.497 M153.288 275.686 C 153.537 275.840,154.082 276.057,154.497 276.168 C 155.023 276.309,155.115 276.285,154.800 276.090 C 154.550 275.936,154.006 275.719,153.590 275.608 C 153.065 275.467,152.973 275.491,153.288 275.686 M167.800 280.272 C 168.834 280.603,169.629 280.603,168.859 280.272 C 168.526 280.129,167.982 280.016,167.649 280.021 C 167.163 280.028,167.193 280.078,167.800 280.272 M230.839 280.272 C 230.069 280.603,230.863 280.603,231.897 280.272 C 232.505 280.078,232.534 280.028,232.048 280.021 C 231.716 280.016,231.172 280.129,230.839 280.272 M171.731 281.179 C 172.765 281.510,173.560 281.510,172.789 281.179 C 172.457 281.036,171.912 280.923,171.580 280.928 C 171.094 280.935,171.123 280.985,171.731 281.179 M226.757 281.179 C 226.159 281.371,226.127 281.421,226.606 281.421 C 226.939 281.421,227.551 281.312,227.967 281.179 C 228.565 280.987,228.597 280.937,228.118 280.937 C 227.785 280.937,227.173 281.046,226.757 281.179 M176.266 282.086 C 176.682 282.219,177.362 282.326,177.778 282.323 C 178.457 282.318,178.441 282.293,177.627 282.086 C 176.348 281.761,175.250 281.761,176.266 282.086 M222.222 282.086 C 221.206 282.412,222.304 282.412,223.583 282.086 C 224.397 281.879,224.413 281.855,223.734 281.850 C 223.318 281.847,222.638 281.953,222.222 282.086 M217.158 282.899 C 217.449 282.975,217.925 282.975,218.216 282.899 C 218.507 282.823,218.269 282.761,217.687 282.761 C 217.105 282.761,216.867 282.823,217.158 282.899 M215.042 283.202 C 215.333 283.278,215.809 283.278,216.100 283.202 C 216.391 283.126,216.153 283.063,215.571 283.063 C 214.989 283.063,214.751 283.126,215.042 283.202 M189.645 283.818 C 190.268 283.883,191.289 283.883,191.912 283.818 C 192.536 283.753,192.026 283.700,190.779 283.700 C 189.531 283.700,189.021 283.753,189.645 283.818 M207.942 283.817 C 208.485 283.884,209.302 283.883,209.756 283.814 C 210.210 283.745,209.766 283.690,208.768 283.692 C 207.770 283.693,207.399 283.750,207.942 283.817 M196.616 284.126 C 198.579 284.179,201.708 284.179,203.570 284.126 C 205.431 284.073,203.825 284.030,200.000 284.030 C 196.175 284.030,194.652 284.073,196.616 284.126 " stroke="none" fill="#747474" fill-rule="evenodd"></path></g></svg>